<svg width="24" height="24" viewBox="0 0 24 24" fill="none" xmlns="http://www.w3.org/2000/svg">
<path fill-rule="evenodd" clip-rule="evenodd" d="M3.79154 2.93825C6.46066 2.48562 9.20314 2.25 12.0001 2.25C14.7969 2.25 17.5394 2.48561 20.2085 2.93822C21.1108 3.09125 21.75 3.87676 21.75 4.77402V5.81802C21.75 6.61367 21.4339 7.37673 20.8713 7.93934L15.4393 13.3713C15.158 13.6526 15 14.0342 15 14.432V17.3594C15 18.4957 14.358 19.5345 13.3416 20.0427L10.0854 21.6708C9.85292 21.7871 9.57681 21.7746 9.3557 21.638C9.13459 21.5013 9 21.2599 9 21V14.432C9 14.0342 8.84197 13.6526 8.56066 13.3713L3.12868 7.93934C2.56607 7.37673 2.25 6.61367 2.25 5.81802V4.77404C2.25 3.87678 2.88917 3.09127 3.79154 2.93825ZM12.0001 3.75C9.28752 3.75 6.62893 3.9785 4.04233 4.41713C3.87899 4.44483 3.75 4.59036 3.75 4.77404V5.81802C3.75 6.21584 3.90804 6.59737 4.18934 6.87868L9.62132 12.3107C10.1839 12.8733 10.5 13.6363 10.5 14.432V19.7865L12.6708 18.7011C13.179 18.447 13.5 17.9276 13.5 17.3594V14.432C13.5 13.6363 13.8161 12.8733 14.3787 12.3107L19.8107 6.87868C20.092 6.59737 20.25 6.21584 20.25 5.81802V4.77402C20.25 4.59034 20.121 4.44481 19.9577 4.41711C17.3711 3.97849 14.7126 3.75 12.0001 3.75Z" fill="#091E42"/>
</svg>
