<svg width="24" height="24" viewBox="0 0 24 24" fill="none" xmlns="http://www.w3.org/2000/svg">
<path fill-rule="evenodd" clip-rule="evenodd" d="M14.6152 1.59492C14.9165 1.76286 15.0643 2.1146 14.9736 2.44733L12.982 9.75H20.25C20.5487 9.75 20.8189 9.92718 20.9379 10.2011C21.0569 10.475 21.0021 10.7934 20.7983 11.0117L10.2983 22.2617C10.063 22.5139 9.68604 22.573 9.38481 22.4051C9.08357 22.2371 8.9357 21.8854 9.02644 21.5527L11.0181 14.25H3.75002C3.45137 14.25 3.18118 14.0728 3.06216 13.7989C2.94313 13.525 2.99795 13.2066 3.20173 12.9883L13.7017 1.73826C13.937 1.48612 14.314 1.42698 14.6152 1.59492ZM5.47593 12.75H12C12.2338 12.75 12.4542 12.859 12.596 13.0448C12.7379 13.2305 12.7851 13.4718 12.7236 13.6973L11.2719 19.0202L18.5241 11.25H12C11.7663 11.25 11.5459 11.141 11.404 10.9552C11.2621 10.7695 11.2149 10.5282 11.2764 10.3027L12.7281 4.97977L5.47593 12.75Z" fill="#091E42"/>
</svg>
