<svg width="16" height="16" viewBox="0 0 16 16" fill="none" xmlns="http://www.w3.org/2000/svg">
<g opacity="0.7">
<path d="M8.03471 0.833336H7.96537C7.36604 0.833336 6.86671 0.833336 6.47071 0.886669C6.05204 0.942669 5.67404 1.06667 5.37071 1.37C5.06671 1.674 4.94271 2.052 4.88671 2.47C4.83337 2.86667 4.83337 3.36667 4.83337 3.96534V4.01734C5.13804 4.00734 5.47004 4.00334 5.83337 4.00134V4C5.83337 3.35734 5.83471 2.92534 5.87804 2.60334C5.91937 2.296 5.99071 2.164 6.07804 2.07734C6.16471 1.99067 6.29604 1.91934 6.60337 1.87734C6.92537 1.83467 7.35737 1.83334 8.00004 1.83334C8.64271 1.83334 9.07471 1.83467 9.39671 1.878C9.70404 1.91934 9.83604 1.99067 9.92271 2.078C10.0094 2.16467 10.0807 2.296 10.1227 2.60334C10.1654 2.92534 10.1667 3.35734 10.1667 4V4.00134C10.5001 4.00208 10.8335 4.00742 11.1667 4.01734V3.96534C11.1667 3.36667 11.1667 2.86667 11.1134 2.47067C11.0574 2.052 10.9334 1.674 10.6294 1.37067C10.326 1.06667 9.94804 0.942669 9.52937 0.886669C9.13337 0.833336 8.63337 0.833336 8.03471 0.833336Z" fill="#155996"/>
<path opacity="0.5" fill-rule="evenodd" clip-rule="evenodd" d="M1.33337 9.33333C1.33337 6.81933 1.33337 5.562 2.11471 4.78133C2.89537 4 4.15271 4 6.66671 4H9.33337C11.8474 4 13.1047 4 13.8854 4.78133C14.6667 5.562 14.6667 6.81933 14.6667 9.33333C14.6667 11.8473 14.6667 13.1047 13.8854 13.8853C13.1047 14.6667 11.8474 14.6667 9.33337 14.6667H6.66671C4.15271 14.6667 2.89537 14.6667 2.11471 13.8853C1.33337 13.1047 1.33337 11.8473 1.33337 9.33333ZM8.50004 8.33333C8.50004 8.20072 8.44736 8.07355 8.35359 7.97978C8.25983 7.88601 8.13265 7.83333 8.00004 7.83333C7.86743 7.83333 7.74026 7.88601 7.64649 7.97978C7.55272 8.07355 7.50004 8.20072 7.50004 8.33333V8.83333H7.00004C6.86743 8.83333 6.74026 8.88601 6.64649 8.97978C6.55272 9.07355 6.50004 9.20072 6.50004 9.33333C6.50004 9.46594 6.55272 9.59312 6.64649 9.68689C6.74026 9.78065 6.86743 9.83333 7.00004 9.83333H7.50004V10.3333C7.50004 10.4659 7.55272 10.5931 7.64649 10.6869C7.74026 10.7807 7.86743 10.8333 8.00004 10.8333C8.13265 10.8333 8.25983 10.7807 8.35359 10.6869C8.44736 10.5931 8.50004 10.4659 8.50004 10.3333V9.83333H9.00004C9.13265 9.83333 9.25983 9.78065 9.35359 9.68689C9.44736 9.59312 9.50004 9.46594 9.50004 9.33333C9.50004 9.20072 9.44736 9.07355 9.35359 8.97978C9.25983 8.88601 9.13265 8.83333 9.00004 8.83333H8.50004V8.33333Z" fill="#155996"/>
<path fill-rule="evenodd" clip-rule="evenodd" d="M8.00004 12C8.70728 12 9.38556 11.7191 9.88566 11.219C10.3858 10.7189 10.6667 10.0406 10.6667 9.33334C10.6667 8.62609 10.3858 7.94782 9.88566 7.44772C9.38556 6.94762 8.70728 6.66667 8.00004 6.66667C7.2928 6.66667 6.61452 6.94762 6.11442 7.44772C5.61433 7.94782 5.33337 8.62609 5.33337 9.33334C5.33337 10.0406 5.61433 10.7189 6.11442 11.219C6.61452 11.7191 7.2928 12 8.00004 12ZM8.50004 8.33334C8.50004 8.20073 8.44736 8.07355 8.35359 7.97979C8.25983 7.88602 8.13265 7.83334 8.00004 7.83334C7.86743 7.83334 7.74026 7.88602 7.64649 7.97979C7.55272 8.07355 7.50004 8.20073 7.50004 8.33334V8.83334H7.00004C6.86743 8.83334 6.74026 8.88602 6.64649 8.97979C6.55272 9.07355 6.50004 9.20073 6.50004 9.33334C6.50004 9.46595 6.55272 9.59312 6.64649 9.68689C6.74026 9.78066 6.86743 9.83334 7.00004 9.83334H7.50004V10.3333C7.50004 10.4659 7.55272 10.5931 7.64649 10.6869C7.74026 10.7807 7.86743 10.8333 8.00004 10.8333C8.13265 10.8333 8.25983 10.7807 8.35359 10.6869C8.44736 10.5931 8.50004 10.4659 8.50004 10.3333V9.83334H9.00004C9.13265 9.83334 9.25983 9.78066 9.35359 9.68689C9.44736 9.59312 9.50004 9.46595 9.50004 9.33334C9.50004 9.20073 9.44736 9.07355 9.35359 8.97979C9.25983 8.88602 9.13265 8.83334 9.00004 8.83334H8.50004V8.33334Z" fill="#155996"/>
</g>
</svg>
