<svg width="16" height="16" viewBox="0 0 16 16" fill="none" xmlns="http://www.w3.org/2000/svg">
<g opacity="0.5">
<path fill-rule="evenodd" clip-rule="evenodd" d="M3.6968 5.63635C3.69687 3.25977 5.62349 1.33319 8.00009 1.33319C10.3767 1.33319 12.3034 3.25984 12.3034 5.63648L12.3033 5.66784V6.11462C12.3033 7.46817 12.8139 8.70131 13.6539 9.63368C13.76 9.7515 13.8008 9.91429 13.7629 10.0683C13.7249 10.2222 13.613 10.3473 13.4642 10.4023C12.4799 10.7656 11.4494 11.0337 10.3842 11.1952C8.98475 11.4073 7.21835 11.4381 5.616 11.1952C4.55065 11.0337 3.52012 10.7657 2.53571 10.4023C2.38693 10.3473 2.27507 10.2222 2.23708 10.0683C2.19908 9.91429 2.2399 9.7515 2.34605 9.63368C3.18601 8.70131 3.69668 7.46817 3.69668 6.11462L3.6968 5.63635Z" fill="#091E42"/>
<path opacity="0.5" fill-rule="evenodd" clip-rule="evenodd" d="M5.58345 12.0484C5.57839 12.1124 5.57581 12.1771 5.57581 12.2424C5.57581 13.5813 6.66119 14.6667 8.00007 14.6667C9.33896 14.6667 10.4243 13.5813 10.4243 12.2424C10.4243 12.1771 10.4218 12.1124 10.4167 12.0483C9.66551 12.2405 8.8509 12.3457 7.99988 12.3457C7.149 12.3457 6.33453 12.2406 5.58345 12.0484Z" fill="#091E42"/>
</g>
</svg>
