<svg width="16" height="16" viewBox="0 0 16 16" fill="none" xmlns="http://www.w3.org/2000/svg">
<g opacity="0.5">
<path opacity="0.5" d="M3.60035 2.25122C4.87705 2.08546 6.17875 2 7.50018 2C8.82148 2 10.123 2.08545 11.3996 2.25117C12.0997 2.35198 13.5 2.98286 13.5 4.69988V5.55296V8.53085C13.5 9.72771 13.0385 11.0588 11.3827 11.0588C10.6254 11.0588 8.79999 11.006 7.50018 10.9796L5.05713 13.8648C4.92513 13.9968 4.72661 14.0363 4.55415 13.9649C4.38168 13.8934 4.26923 13.7251 4.26923 13.5384V11.0588C4.04553 11.0348 3.82257 11.0084 3.60036 10.9796C2.36441 10.8191 1.5 9.74356 1.5 8.53085V4.69992C1.5 3.48721 2.3644 2.41168 3.60035 2.25122Z" fill="#091E42"/>
<path d="M13.0998 6.15701C12.2486 6.05342 11.3808 6 10.4999 6C9.61902 6 8.7513 6.0534 7.90025 6.15698C7.4335 6.21999 6.5 6.61429 6.5 7.68742V8.2206V10.0818C6.5 10.8298 6.80769 11.6617 7.91156 11.6617C8.41637 11.6617 9.63334 11.6287 10.4999 11.6122L12.1286 13.9155C12.2166 13.998 12.3489 14.0227 12.4639 13.978C12.5789 13.9334 12.6538 13.8282 12.6538 13.7115V11.6617C12.803 11.6468 12.9516 11.6303 13.0998 11.6122C13.9237 11.5119 14.5 10.8397 14.5 10.0818V7.68745C14.5 6.92951 13.9237 6.2573 13.0998 6.15701Z" fill="#091E42"/>
</g>
</svg>
