<svg width="16" height="16" viewBox="0 0 16 16" fill="none" xmlns="http://www.w3.org/2000/svg">
<g opacity="0.7">
<path d="M5 4C4.73478 4 4.48043 4.10536 4.29289 4.29289C4.10536 4.48043 4 4.73478 4 5V6.5C4 6.76522 4.10536 7.01957 4.29289 7.20711C4.48043 7.39464 4.73478 7.5 5 7.5H6.5C6.76522 7.5 7.01957 7.39464 7.20711 7.20711C7.39464 7.01957 7.5 6.76522 7.5 6.5V5C7.5 4.73478 7.39464 4.48043 7.20711 4.29289C7.01957 4.10536 6.76522 4 6.5 4H5ZM5 8.5C4.73478 8.5 4.48043 8.60536 4.29289 8.79289C4.10536 8.98043 4 9.23478 4 9.5V11C4 11.2652 4.10536 11.5196 4.29289 11.7071C4.48043 11.8946 4.73478 12 5 12H6.5C6.76522 12 7.01957 11.8946 7.20711 11.7071C7.39464 11.5196 7.5 11.2652 7.5 11V9.5C7.5 9.23478 7.39464 8.98043 7.20711 8.79289C7.01957 8.60536 6.76522 8.5 6.5 8.5H5ZM9.5 4C9.23478 4 8.98043 4.10536 8.79289 4.29289C8.60536 4.48043 8.5 4.73478 8.5 5V6.5C8.5 6.76522 8.60536 7.01957 8.79289 7.20711C8.98043 7.39464 9.23478 7.5 9.5 7.5H11C11.2652 7.5 11.5196 7.39464 11.7071 7.20711C11.8946 7.01957 12 6.76522 12 6.5V5C12 4.73478 11.8946 4.48043 11.7071 4.29289C11.5196 4.10536 11.2652 4 11 4H9.5ZM9.5 8.5C9.23478 8.5 8.98043 8.60536 8.79289 8.79289C8.60536 8.98043 8.5 9.23478 8.5 9.5V11C8.5 11.2652 8.60536 11.5196 8.79289 11.7071C8.98043 11.8946 9.23478 12 9.5 12H11C11.2652 12 11.5196 11.8946 11.7071 11.7071C11.8946 11.5196 12 11.2652 12 11V9.5C12 9.23478 11.8946 8.98043 11.7071 8.79289C11.5196 8.60536 11.2652 8.5 11 8.5H9.5ZM2 4.5C2 3.83696 2.26339 3.20107 2.73223 2.73223C3.20107 2.26339 3.83696 2 4.5 2H11.5C12.163 2 12.7989 2.26339 13.2678 2.73223C13.7366 3.20107 14 3.83696 14 4.5V11.5C14 12.163 13.7366 12.7989 13.2678 13.2678C12.7989 13.7366 12.163 14 11.5 14H4.5C3.83696 14 3.20107 13.7366 2.73223 13.2678C2.26339 12.7989 2 12.163 2 11.5V4.5ZM4.5 3C4.10218 3 3.72064 3.15804 3.43934 3.43934C3.15804 3.72064 3 4.10218 3 4.5V11.5C3 11.8978 3.15804 12.2794 3.43934 12.5607C3.72064 12.842 4.10218 13 4.5 13H11.5C11.8978 13 12.2794 12.842 12.5607 12.5607C12.842 12.2794 13 11.8978 13 11.5V4.5C13 4.10218 12.842 3.72064 12.5607 3.43934C12.2794 3.15804 11.8978 3 11.5 3H4.5Z" fill="#091E42"/>
</g>
</svg>
