<svg width="16" height="16" viewBox="0 0 16 16" fill="none" xmlns="http://www.w3.org/2000/svg">
<g opacity="0.7">
<path fill-rule="evenodd" clip-rule="evenodd" d="M4 2C2.89543 2 2 2.89543 2 4V12C2 13.1046 2.89543 14 4 14H12C13.1046 14 14 13.1046 14 12V4C14 2.89543 13.1046 2 12 2H4ZM3.66667 3.16667C3.39052 3.16667 3.16667 3.39052 3.16667 3.66667V7.66667C3.16667 7.83996 3.25639 8.00089 3.4038 8.09199C3.55121 8.1831 3.73528 8.19138 3.89027 8.11388L5 7.33333L6.27639 8.11388C6.43139 8.19138 6.61546 8.1831 6.76287 8.09199C6.91027 8.00089 7 7.83996 7 7.66667V3.66667C7 3.39052 6.77614 3.16667 6.5 3.16667H3.66667Z" fill="#091E42"/>
</g>
</svg>
