<svg width="24" height="24" viewBox="0 0 24 24" fill="none" xmlns="http://www.w3.org/2000/svg">
<path fill-rule="evenodd" clip-rule="evenodd" d="M1.5 5.625C1.5 4.58947 2.33947 3.75 3.375 3.75H20.625C21.6605 3.75 22.5 4.58947 22.5 5.625V15.375C22.5 16.4105 21.6605 17.25 20.625 17.25H3.375C2.33947 17.25 1.5 16.4105 1.5 15.375V5.625ZM19.5 15.75H4.5C4.5 14.9216 3.82843 14.25 3 14.25V6.75C3.82843 6.75 4.5 6.07843 4.5 5.25H19.5C19.5 6.07843 20.1716 6.75 21 6.75V14.25C20.1716 14.25 19.5 14.9216 19.5 15.75ZM12 8.25C10.7574 8.25 9.75 9.25736 9.75 10.5C9.75 11.7426 10.7574 12.75 12 12.75C13.2426 12.75 14.25 11.7426 14.25 10.5C14.25 9.25736 13.2426 8.25 12 8.25ZM8.25 10.5C8.25 8.42893 9.92893 6.75 12 6.75C14.0711 6.75 15.75 8.42893 15.75 10.5C15.75 12.5711 14.0711 14.25 12 14.25C9.92893 14.25 8.25 12.5711 8.25 10.5ZM5.25 10.5C5.25 10.0858 5.58579 9.75 6 9.75H6.0075C6.42171 9.75 6.7575 10.0858 6.7575 10.5V10.5075C6.7575 10.9217 6.42171 11.2575 6.0075 11.2575H6C5.58579 11.2575 5.25 10.9217 5.25 10.5075V10.5ZM17.25 10.5C17.25 10.0858 17.5858 9.75 18 9.75H18.0075C18.4217 9.75 18.7575 10.0858 18.7575 10.5V10.5075C18.7575 10.9217 18.4217 11.2575 18.0075 11.2575H18C17.5858 11.2575 17.25 10.9217 17.25 10.5075V10.5ZM1.5 18.75C1.5 18.3358 1.83579 18 2.25 18C7.78434 18 13.147 18.7402 18.2437 20.1276C18.5072 20.1993 18.75 20.0004 18.75 19.7551V18.75C18.75 18.3358 19.0858 18 19.5 18C19.9142 18 20.25 18.3358 20.25 18.75V19.7551C20.25 21.0168 19.0404 21.899 17.8498 21.5749C12.8802 20.2222 7.65005 19.5 2.25 19.5C1.83579 19.5 1.5 19.1642 1.5 18.75Z" fill="#091E42"/>
</svg>
