<svg width="24" height="24" viewBox="0 0 24 24" fill="none" xmlns="http://www.w3.org/2000/svg">
<path fill-rule="evenodd" clip-rule="evenodd" d="M5.99994 4.5C5.17152 4.5 4.49994 5.17157 4.49994 6V9H19.4999C19.4999 8.17157 18.8284 7.5 17.9999 7.5H14.1213C13.5245 7.5 12.9522 7.26295 12.5303 6.84099L10.409 4.71967C10.2683 4.57902 10.0775 4.5 9.87862 4.5H5.99994ZM20.9999 9.20556V9C20.9999 7.34315 19.6568 6 17.9999 6H14.1213C13.9223 6 13.7316 5.92098 13.5909 5.78033L11.4696 3.65901C11.0477 3.23705 10.4754 3 9.87862 3H5.99994C4.34309 3 2.99994 4.34315 2.99994 6V9.20556C1.74752 9.6961 0.920955 11.0004 1.12437 12.4243L1.98151 18.4243C2.19264 19.9022 3.45841 21 4.95136 21H19.0485C20.5415 21 21.8072 19.9022 22.0184 18.4243L22.8755 12.4243C23.0789 11.0004 22.2524 9.6961 20.9999 9.20556ZM4.09421 10.5C4.01493 10.5 3.93785 10.506 3.86324 10.5174C3.06692 10.6391 2.4914 11.3869 2.60929 12.2121L3.46643 18.2121C3.572 18.9511 4.20488 19.5 4.95136 19.5H19.0485C19.795 19.5 20.4279 18.9511 20.5335 18.2121L21.3906 12.2121C21.5085 11.3869 20.933 10.6391 20.1366 10.5174C20.062 10.506 19.985 10.5 19.9057 10.5H4.09421Z" fill="#091E42"/>
</svg>
