<svg width="24" height="24" viewBox="0 0 24 24" fill="none" xmlns="http://www.w3.org/2000/svg">
<path d="M9.16965 14.73C9.0981 14.73 9.032 14.6918 8.99631 14.6298L6.84284 10.8881C6.825 10.8571 6.79195 10.838 6.75617 10.838H5.696C5.64077 10.838 5.596 10.8828 5.596 10.938V14.53C5.596 14.6405 5.50646 14.73 5.396 14.73H4.2C4.08954 14.73 4 14.6405 4 14.53L4 5.2C4 5.08954 4.08954 5 4.2 5H7.36C8.10667 5 8.73667 5.13067 9.25 5.392C9.77267 5.65333 10.16 6.00333 10.412 6.442C10.6733 6.88067 10.804 7.37067 10.804 7.912C10.804 8.54667 10.6173 9.12533 10.244 9.648C9.88 10.1613 9.31533 10.5113 8.55 10.698L10.7773 14.4275C10.8569 14.5608 10.7609 14.73 10.6056 14.73H9.16965ZM5.596 9.564H7.36C7.95733 9.564 8.40533 9.41467 8.704 9.116C9.012 8.81733 9.166 8.416 9.166 7.912C9.166 7.408 9.01667 7.016 8.718 6.736C8.41933 6.44667 7.96667 6.302 7.36 6.302H5.596V9.564Z" fill="#091E42"/>
<path d="M14.3577 7.85413C14.3577 7.94981 14.4838 7.9944 14.5496 7.92503C14.7946 7.6672 15.0992 7.44352 15.4637 7.254C15.9304 7.01133 16.4577 6.89 17.0457 6.89C17.7177 6.89 18.329 7.058 18.8797 7.394C19.4397 7.72067 19.8784 8.18267 20.1957 8.78C20.513 9.37733 20.6717 10.0633 20.6717 10.838C20.6717 11.6127 20.513 12.308 20.1957 12.924C19.8784 13.5307 19.4397 14.0067 18.8797 14.352C18.329 14.688 17.7177 14.856 17.0457 14.856C16.4577 14.856 15.935 14.7393 15.4777 14.506C15.1134 14.3127 14.8023 14.0838 14.5446 13.8194C14.479 13.752 14.3577 13.7967 14.3577 13.8908V18.198C14.3577 18.3085 14.2682 18.398 14.1577 18.398H12.9617C12.8512 18.398 12.7617 18.3085 12.7617 18.198V7.216C12.7617 7.10554 12.8512 7.016 12.9617 7.016H14.1577C14.2682 7.016 14.3577 7.10554 14.3577 7.216V7.85413ZM19.0477 10.838C19.0477 10.306 18.9357 9.84867 18.7117 9.466C18.497 9.074 18.2077 8.78 17.8437 8.584C17.489 8.37867 17.1064 8.276 16.6957 8.276C16.2944 8.276 15.9117 8.37867 15.5477 8.584C15.193 8.78933 14.9037 9.088 14.6797 9.48C14.465 9.872 14.3577 10.334 14.3577 10.866C14.3577 11.398 14.465 11.8647 14.6797 12.266C14.9037 12.658 15.193 12.9567 15.5477 13.162C15.9117 13.3673 16.2944 13.47 16.6957 13.47C17.1064 13.47 17.489 13.3673 17.8437 13.162C18.2077 12.9473 18.497 12.6393 18.7117 12.238C18.9357 11.8367 19.0477 11.37 19.0477 10.838Z" fill="#091E42"/>
</svg>
