<svg width="24" height="24" viewBox="0 0 24 24" fill="none" xmlns="http://www.w3.org/2000/svg">
<path d="M22 12C22 17.523 17.523 22 12 22C6.477 22 2 17.523 2 12C2 6.477 6.477 2 12 2C17.523 2 22 6.477 22 12Z" fill="#091E42"/>
<path d="M10.413 8.498L10.577 8.204C11.21 7.068 11.527 6.5 12 6.5C12.473 6.5 12.79 7.068 13.423 8.204L13.587 8.498C13.767 8.821 13.857 8.982 13.997 9.088C14.137 9.195 14.313 9.235 14.662 9.314L14.98 9.386C16.21 9.664 16.825 9.803 16.971 10.274C17.118 10.744 16.698 11.234 15.86 12.215L15.643 12.469C15.405 12.747 15.286 12.887 15.233 13.059C15.178 13.231 15.196 13.417 15.233 13.789L15.265 14.127C15.392 15.435 15.455 16.089 15.072 16.38C14.689 16.67 14.114 16.406 12.962 15.876L12.664 15.738C12.337 15.588 12.174 15.512 12 15.512C11.827 15.512 11.663 15.588 11.336 15.738L11.038 15.876C9.88598 16.406 9.31098 16.671 8.92798 16.38C8.54498 16.09 8.60798 15.435 8.73498 14.127L8.76698 13.789C8.80398 13.417 8.82198 13.231 8.76698 13.059C8.71398 12.887 8.59498 12.747 8.35698 12.469L8.13998 12.215C7.30198 11.235 6.88198 10.745 7.02898 10.274C7.17498 9.804 7.78898 9.664 9.01898 9.386L9.33798 9.314C9.68798 9.234 9.86198 9.195 10.003 9.089C10.143 8.982 10.233 8.82 10.413 8.498Z" fill="white"/>
</svg>
