<svg width="16" height="16" viewBox="0 0 16 16" fill="none" xmlns="http://www.w3.org/2000/svg">
<g opacity="0.7">
<g opacity="0.5">
<path d="M1.00006 5.86945V10.875C1.00006 11.8415 1.78356 12.625 2.75006 12.625H11.5C12.4665 12.625 13.25 11.8415 13.25 10.875V5.86945L8.04221 9.07426C7.47975 9.42039 6.77034 9.42039 6.20788 9.07426L1.00006 5.86945Z" fill="#091E42"/>
<path d="M13.25 4.84204V4.74998C13.25 3.78348 12.4665 2.99998 11.5 2.99998H2.75006C1.78356 2.99998 1.00006 3.78348 1.00006 4.74998V4.84204L6.66646 8.32906C6.94769 8.50212 7.3024 8.50212 7.58363 8.32906L13.25 4.84204Z" fill="#091E42"/>
</g>
<path d="M11.2553 13.6765C11.034 13.6765 10.8547 13.4971 10.8547 13.2759V11.0059C10.7746 10.9347 10.7099 10.8524 10.6608 10.7591C10.6117 10.6658 10.5873 10.57 10.5876 10.4718C10.5876 10.2848 10.6544 10.1267 10.7879 9.99746C10.9215 9.8682 11.0772 9.80375 11.2553 9.80411C11.4422 9.80411 11.6003 9.86874 11.7296 9.99799C11.8588 10.1272 11.9233 10.2852 11.9229 10.4718C11.9229 10.5697 11.903 10.6676 11.8631 10.7655C11.8232 10.8634 11.7541 10.9436 11.6559 11.0059V13.2759C11.6559 13.4971 11.4765 13.6765 11.2553 13.6765ZM9.09384 12.6332C8.93264 12.7944 8.66784 12.79 8.53129 12.6075C8.34205 12.3545 8.18394 12.0811 8.05698 11.7873C7.87431 11.3646 7.78315 10.9261 7.78351 10.4718C7.78351 9.50144 8.12178 8.68032 8.79833 8.0084C9.47488 7.33648 10.2939 7.00034 11.2553 6.99998C12.2256 6.99998 13.0469 7.33612 13.7192 8.0084C14.3914 8.68068 14.7274 9.5018 14.7271 10.4718C14.7271 10.9258 14.6425 11.3643 14.4733 11.7873C14.354 12.0858 14.1947 12.3609 13.9956 12.6126C13.8565 12.7884 13.5971 12.7869 13.4386 12.6283C13.28 12.4697 13.2832 12.2145 13.417 12.0344C13.5471 11.8594 13.6522 11.6723 13.7325 11.4732C13.8618 11.1528 13.9262 10.8189 13.9259 10.4718C13.9259 9.72399 13.6677 9.09195 13.1514 8.57563C12.6351 8.05932 12.003 7.80116 11.2553 7.80116C10.5164 7.80116 9.88669 8.05932 9.3661 8.57563C8.84552 9.09195 8.58504 9.72399 8.58469 10.4718C8.58469 10.8189 8.65377 11.1551 8.79193 11.4802C8.87883 11.6847 8.98764 11.8758 9.11836 12.0537C9.24791 12.23 9.24853 12.4785 9.09384 12.6332ZM10.0367 11.6904C9.87741 11.8496 9.6147 11.8483 9.48948 11.6611C9.41059 11.5431 9.34275 11.4182 9.28598 11.2863C9.17489 11.0281 9.11916 10.7566 9.11881 10.4718C9.11881 9.87532 9.328 9.37005 9.7464 8.95593C10.1648 8.54181 10.6678 8.33493 11.2553 8.33528C11.8517 8.33528 12.357 8.54234 12.7711 8.95646C13.1852 9.37058 13.3921 9.87568 13.3918 10.4718C13.3918 10.7477 13.3405 11.0148 13.2379 11.2729C13.1833 11.4104 13.1143 11.5403 13.0308 11.6626C12.9069 11.8442 12.6509 11.8437 12.4937 11.6901C12.3339 11.534 12.3399 11.279 12.4431 11.0809C12.4603 11.0478 12.4762 11.0139 12.4907 10.9792C12.5576 10.8189 12.5909 10.6498 12.5906 10.4718C12.5906 10.0979 12.4615 9.78185 12.2033 9.5237C11.9452 9.26554 11.6292 9.13646 11.2553 9.13646C10.8814 9.13646 10.5654 9.26554 10.3072 9.5237C10.0491 9.78185 9.91998 10.0979 9.91998 10.4718C9.91998 10.6498 9.95559 10.8189 10.0268 10.9792C10.0432 11.0159 10.0609 11.0518 10.0801 11.0867C10.1868 11.2811 10.1935 11.5336 10.0367 11.6904Z" fill="#091E42"/>
</g>
</svg>
