<svg width="24" height="24" viewBox="0 0 24 24" fill="none" xmlns="http://www.w3.org/2000/svg">
<path fill-rule="evenodd" clip-rule="evenodd" d="M8.85377 3.81684C9.00446 2.91274 9.78669 2.25009 10.7033 2.25009H13.2972C14.2138 2.25009 14.996 2.91274 15.1467 3.81684L15.3602 5.09789C15.3791 5.21138 15.4632 5.34321 15.6277 5.43427C15.7102 5.4799 15.7916 5.52704 15.8721 5.57563C16.0331 5.67281 16.1894 5.67984 16.2972 5.63942L17.5141 5.18354C18.3724 4.86198 19.3374 5.20809 19.7957 6.00186L21.0927 8.2483C21.551 9.04208 21.3682 10.0508 20.6606 10.6334L19.6562 11.4602C19.5673 11.5334 19.4955 11.6718 19.4989 11.8587C19.4998 11.9057 19.5002 11.9529 19.5002 12.0001C19.5002 12.0473 19.4998 12.0944 19.4989 12.1414C19.4955 12.3284 19.5673 12.4668 19.6562 12.54L20.6606 13.3668C21.3682 13.9493 21.551 14.9581 21.0927 15.7519L19.7957 17.9983C19.3374 18.7921 18.3724 19.1382 17.5141 18.8166L16.2973 18.3608C16.1894 18.3203 16.0331 18.3274 15.8721 18.4245C15.7916 18.4731 15.7102 18.5203 15.6277 18.5659C15.4632 18.657 15.3791 18.7888 15.3602 18.9023L15.1467 20.1833C14.996 21.0874 14.2138 21.7501 13.2972 21.7501H10.7033C9.78669 21.7501 9.00446 21.0874 8.85377 20.1833L8.64027 18.9023C8.62135 18.7888 8.53727 18.657 8.37276 18.5659C8.29033 18.5203 8.20885 18.4731 8.12837 18.4245C7.96743 18.3274 7.81113 18.3203 7.70324 18.3608L6.48637 18.8166C5.62806 19.1382 4.66307 18.7921 4.20478 17.9983L2.9078 15.7519C2.44951 14.9581 2.63227 13.9493 3.3399 13.3668L3.81658 13.9458L3.3399 13.3668L4.34425 12.54C4.43316 12.4668 4.50501 12.3284 4.50155 12.1414C4.50068 12.0944 4.50024 12.0473 4.50024 12.0001C4.50024 11.9529 4.50068 11.9058 4.50155 11.8587C4.50501 11.6718 4.43316 11.5334 4.34425 11.4602L3.3399 10.6334C2.63227 10.0509 2.44951 9.04209 2.9078 8.24832L4.20478 6.00188C4.66307 5.2081 5.62806 4.862 6.48637 5.18355L7.70323 5.63943C7.81112 5.67985 7.96742 5.67282 8.12835 5.57564C8.20884 5.52704 8.29032 5.47991 8.37276 5.43427C8.53727 5.34321 8.62135 5.21138 8.64026 5.09789L8.85377 3.81684ZM10.7033 3.75009C10.5199 3.75009 10.3635 3.88262 10.3334 4.06344L10.1199 5.34449C10.0141 5.97909 9.59822 6.4704 9.0992 6.74663C9.03328 6.78312 8.96811 6.82082 8.90373 6.8597C8.41459 7.15506 7.78023 7.27008 7.17699 7.04409L5.96014 6.58821C5.78848 6.5239 5.59548 6.59312 5.50382 6.75188L4.20684 8.99832C4.11518 9.15707 4.15173 9.35882 4.29326 9.47533L5.29761 10.3022C5.79372 10.7106 6.01186 11.3158 6.00129 11.8865C6.0006 11.9243 6.00024 11.9621 6.00024 12.0001C6.00024 12.038 6.0006 12.0759 6.00129 12.1137C6.01186 12.6844 5.79373 13.2896 5.29761 13.698L4.29326 14.5249L3.96092 14.1212L4.29326 14.5249C4.15173 14.6414 4.11518 14.8431 4.20684 15.0019L5.50382 17.2483C5.59548 17.4071 5.78848 17.4763 5.96014 17.412L7.17701 16.9561C7.78024 16.7301 8.41461 16.8451 8.90374 17.1405C8.96812 17.1794 9.03328 17.2171 9.0992 17.2536C9.59822 17.5298 10.0141 18.0211 10.1199 18.6557L10.3334 19.9367C10.3635 20.1176 10.5199 20.2501 10.7033 20.2501H13.2972C13.4805 20.2501 13.637 20.1176 13.6671 19.9367L13.8806 18.6557C13.9864 18.0211 14.4023 17.5298 14.9013 17.2536C14.9672 17.2171 15.0324 17.1794 15.0968 17.1405C15.5859 16.8451 16.2203 16.7301 16.8235 16.9561L18.0404 17.412C18.212 17.4763 18.405 17.4071 18.4967 17.2483L19.7936 15.0019C19.8853 14.8431 19.8488 14.6414 19.7072 14.5248L18.7029 13.698C18.2068 13.2896 17.9886 12.6844 17.9992 12.1137C17.9999 12.0759 18.0002 12.038 18.0002 12.0001C18.0002 11.9621 17.9999 11.9243 17.9992 11.8865C17.9886 11.3158 18.2068 10.7106 18.7029 10.3021L19.7072 9.47532C19.8488 9.35881 19.8853 9.15706 19.7936 8.9983L18.4967 6.75187C18.405 6.59311 18.212 6.52389 18.0403 6.5882L16.8235 7.04408C16.2202 7.27007 15.5859 7.15505 15.0968 6.85969C15.0324 6.82081 14.9672 6.78312 14.9013 6.74663C14.4023 6.4704 13.9864 5.97909 13.8806 5.34449L13.6671 4.06344C13.637 3.88262 13.4805 3.75009 13.2972 3.75009H10.7033ZM12 9.75001C10.7574 9.75001 9.75001 10.7574 9.75001 12C9.75001 13.2427 10.7574 14.25 12 14.25C13.2427 14.25 14.25 13.2427 14.25 12C14.25 10.7574 13.2427 9.75001 12 9.75001ZM8.25001 12C8.25001 9.92894 9.92895 8.25001 12 8.25001C14.0711 8.25001 15.75 9.92894 15.75 12C15.75 14.0711 14.0711 15.75 12 15.75C9.92895 15.75 8.25001 14.0711 8.25001 12Z" fill="#091E42"/>
</svg>
