<svg width="24" height="24" viewBox="0 0 24 24" fill="none" xmlns="http://www.w3.org/2000/svg">
<path fill-rule="evenodd" clip-rule="evenodd" d="M12 4.5C10.7574 4.5 9.75 5.50736 9.75 6.75C9.75 7.99264 10.7574 9 12 9C13.2426 9 14.25 7.99264 14.25 6.75C14.25 5.50736 13.2426 4.5 12 4.5ZM8.25 6.75C8.25 4.67893 9.92893 3 12 3C14.0711 3 15.75 4.67893 15.75 6.75C15.75 8.82107 14.0711 10.5 12 10.5C9.92893 10.5 8.25 8.82107 8.25 6.75ZM5.25 8.25C4.42157 8.25 3.75 8.92157 3.75 9.75C3.75 10.5784 4.42157 11.25 5.25 11.25C6.07843 11.25 6.75 10.5784 6.75 9.75C6.75 8.92157 6.07843 8.25 5.25 8.25ZM2.25 9.75C2.25 8.09315 3.59315 6.75 5.25 6.75C6.90685 6.75 8.25 8.09315 8.25 9.75C8.25 11.4069 6.90685 12.75 5.25 12.75C3.59315 12.75 2.25 11.4069 2.25 9.75ZM18.75 8.25C17.9216 8.25 17.25 8.92157 17.25 9.75C17.25 10.5784 17.9216 11.25 18.75 11.25C19.5784 11.25 20.25 10.5784 20.25 9.75C20.25 8.92157 19.5784 8.25 18.75 8.25ZM15.75 9.75C15.75 8.09315 17.0931 6.75 18.75 6.75C20.4069 6.75 21.75 8.09315 21.75 9.75C21.75 11.4069 20.4069 12.75 18.75 12.75C17.0931 12.75 15.75 11.4069 15.75 9.75ZM12 13.5C10.1412 13.5 8.50747 14.4654 7.57352 15.9257C7.05674 16.7337 6.75524 17.6923 6.75007 18.723L6.75 18.75C6.75 18.8186 6.75131 18.8868 6.75391 18.9547C8.3196 19.7816 10.1041 20.25 12 20.25C13.8959 20.25 15.6804 19.7816 17.2461 18.9547C17.2487 18.8868 17.25 18.8186 17.25 18.75L17.2499 18.7229C17.2448 17.6924 16.9434 16.7341 16.4268 15.9262C15.4929 14.4656 13.859 13.5 12 13.5ZM18.7087 19.4999C18.6819 19.7371 18.5438 19.9473 18.3368 20.0662C16.4694 21.1376 14.3051 21.75 12 21.75C9.69492 21.75 7.53059 21.1376 5.66325 20.0662C5.45617 19.9473 5.31808 19.7371 5.29126 19.4999C5.27776 19.5 5.26425 19.5 5.25073 19.5C4.11638 19.5 3.02572 19.306 2.01116 18.9487C1.73155 18.8502 1.53617 18.5963 1.51266 18.3007C1.50475 18.2014 1.50073 18.1011 1.50073 18C1.50073 15.9289 3.17966 14.25 5.25073 14.25C5.77047 14.25 6.26643 14.3561 6.71729 14.5478C7.9531 12.9963 9.86001 12 12 12C14.1402 12 16.0472 12.9965 17.283 14.5482C17.7342 14.3563 18.2305 14.25 18.7506 14.25C20.8216 14.25 22.5006 15.9289 22.5006 18C22.5006 18.1011 22.4966 18.2014 22.4886 18.3007C22.4651 18.5963 22.2698 18.8502 21.9901 18.9487C20.9756 19.306 19.8849 19.5 18.7506 19.5C18.7366 19.5 18.7227 19.5 18.7087 19.4999ZM18.0953 15.8467C18.4126 16.5118 18.6243 17.237 18.7087 17.9999C18.7227 18 18.7366 18 18.7506 18C19.524 18 20.2716 17.8938 20.9801 17.6954C20.8315 16.5968 19.8899 15.75 18.7506 15.75C18.5222 15.75 18.3023 15.7838 18.0953 15.8467ZM5.90491 15.8464C5.69817 15.7837 5.47865 15.75 5.25073 15.75C4.1114 15.75 3.16985 16.5968 3.02118 17.6954C3.72966 17.8938 4.47727 18 5.25073 18C5.26425 18 5.27776 18 5.29127 17.9999C5.37573 17.2369 5.58751 16.5116 5.90491 15.8464Z" fill="#091E42"/>
</svg>
