<svg width="24" height="24" viewBox="0 0 24 24" fill="none" xmlns="http://www.w3.org/2000/svg">
<path fill-rule="evenodd" clip-rule="evenodd" d="M3.75 4.81035V17.5111C4.47281 17.3403 5.22624 17.25 6 17.25C7.93246 17.25 9.73455 17.8128 11.25 18.7829V6.38571C9.82325 5.20726 7.99501 4.5 6 4.5C5.21909 4.5 4.46454 4.60829 3.75 4.81035ZM12.75 6.38571V18.7829C14.2655 17.8128 16.0675 17.25 18 17.25C18.7738 17.25 19.5272 17.3403 20.25 17.5111V4.81035C19.5355 4.60829 18.7809 4.5 18 4.5C16.005 4.5 14.1768 5.20726 12.75 6.38571ZM12 5.06429C10.3458 3.77126 8.26223 3 6 3C4.86178 3 3.76756 3.19535 2.75007 3.55499C2.45037 3.66091 2.25 3.94425 2.25 4.26212V18.5121C2.25 18.7556 2.36818 18.9839 2.56696 19.1245C2.76574 19.265 3.02039 19.3004 3.24993 19.2192C4.10911 18.9156 5.03441 18.75 6 18.75C8.11345 18.75 10.0397 19.5437 11.4998 20.8505C11.7846 21.1054 12.2154 21.1054 12.5002 20.8505C13.9603 19.5437 15.8865 18.75 18 18.75C18.9656 18.75 19.8909 18.9156 20.7501 19.2192C20.9796 19.3004 21.2343 19.265 21.433 19.1245C21.6318 18.9839 21.75 18.7556 21.75 18.5121V4.26212C21.75 3.94425 21.5496 3.66091 21.2499 3.55499C20.2324 3.19535 19.1382 3 18 3C15.7378 3 13.6542 3.77126 12 5.06429Z" fill="#091E42"/>
</svg>
