<svg width="24" height="24" viewBox="0 0 24 24" fill="none" xmlns="http://www.w3.org/2000/svg">
<path fill-rule="evenodd" clip-rule="evenodd" d="M12.0008 5.25C7.69339 5.25 4.03651 8.04374 2.74703 11.9202C2.72924 11.9736 2.72926 12.0318 2.74708 12.0852C4.03816 15.9589 7.69364 18.75 11.9991 18.75C16.3065 18.75 19.9634 15.9563 21.2529 12.0798C21.2707 12.0264 21.2706 11.9682 21.2528 11.9148C19.9617 8.04113 16.3063 5.25 12.0008 5.25ZM1.32372 11.4467C2.81097 6.97571 7.02822 3.75 12.0008 3.75C16.9711 3.75 21.1868 6.97271 22.6759 11.4405C22.7962 11.8015 22.7963 12.1922 22.6762 12.5533C21.1889 17.0243 16.9717 20.25 11.9991 20.25C7.02878 20.25 2.81314 17.0273 1.32404 12.5595C1.2037 12.1985 1.20359 11.8078 1.32372 11.4467ZM12 9.75C10.7574 9.75 9.75001 10.7574 9.75001 12C9.75001 13.2426 10.7574 14.25 12 14.25C13.2427 14.25 14.25 13.2426 14.25 12C14.25 10.7574 13.2427 9.75 12 9.75ZM8.25001 12C8.25001 9.92893 9.92894 8.25 12 8.25C14.0711 8.25 15.75 9.92893 15.75 12C15.75 14.0711 14.0711 15.75 12 15.75C9.92894 15.75 8.25001 14.0711 8.25001 12Z" fill="#091E42"/>
</svg>
