<svg width="24" height="24" viewBox="0 0 24 24" fill="none" xmlns="http://www.w3.org/2000/svg">
<path fill-rule="evenodd" clip-rule="evenodd" d="M1.5 6.75C1.5 5.09315 2.84315 3.75 4.5 3.75H19.5C21.1569 3.75 22.5 5.09315 22.5 6.75V17.25C22.5 18.9069 21.1569 20.25 19.5 20.25H4.5C2.84315 20.25 1.5 18.9069 1.5 17.25V6.75ZM3 6.75V6.99271C3 7.5136 3.27023 7.9972 3.71385 8.2702L11.2139 12.8856C11.696 13.1823 12.304 13.1823 12.7861 12.8856L20.2861 8.2702C20.7298 7.9972 21 7.5136 21 6.99271V6.75C21 5.92157 20.3284 5.25 19.5 5.25H4.5C3.67157 5.25 3 5.92157 3 6.75ZM21 9.59217L13.5723 14.1631C12.6081 14.7564 11.3919 14.7564 10.4277 14.1631L3 9.59217V17.25C3 18.0784 3.67157 18.75 4.5 18.75H19.5C20.3284 18.75 21 18.0784 21 17.25V9.59217Z" fill="#091E42"/>
</svg>
