<svg width="16" height="16" viewBox="0 0 16 16" fill="none" xmlns="http://www.w3.org/2000/svg">
<g opacity="0.5">
<path opacity="0.5" d="M13.7421 7.07133C13.9112 7.37115 14 7.70954 14 8.05375V12C14 13.1046 13.1046 14 12 14H4C2.89543 14 2 13.1046 2 12L2 8.05375C2 7.70954 2.08884 7.37115 2.25792 7.07133L2.75948 6.18193C3.11402 5.55324 3.7798 5.16435 4.50157 5.16435H11.4984C12.2202 5.16435 12.886 5.55324 13.2405 6.18193L13.7421 7.07133Z" fill="#091E42"/>
<path fill-rule="evenodd" clip-rule="evenodd" d="M8 7C8.34518 7 8.625 7.27982 8.625 7.625V8.875H9.875C10.2202 8.875 10.5 9.15482 10.5 9.5C10.5 9.84518 10.2202 10.125 9.875 10.125H8.625V11.375C8.625 11.7202 8.34518 12 8 12C7.65482 12 7.375 11.7202 7.375 11.375V10.125H6.125C5.77982 10.125 5.5 9.84518 5.5 9.5C5.5 9.15482 5.77982 8.875 6.125 8.875H7.375V7.625C7.375 7.27982 7.65482 7 8 7Z" fill="#091E42"/>
<rect x="3.00006" y="2" width="10" height="2.5" rx="1.25" fill="#091E42"/>
</g>
</svg>
