<svg width="24" height="24" viewBox="0 0 24 24" fill="none" xmlns="http://www.w3.org/2000/svg">
<path fill-rule="evenodd" clip-rule="evenodd" d="M3.30628 9.67069C4.59276 4.8695 9.52779 2.02026 14.329 3.30673C15.9114 3.73074 17.2836 4.55229 18.3648 5.63538C18.3647 5.6353 18.3649 5.63547 18.3648 5.63538L20.2654 7.53594V4.35578C20.2654 3.94156 20.6011 3.60578 21.0154 3.60578C21.4296 3.60578 21.7654 3.94156 21.7654 4.35578V9.34838C21.7654 9.76259 21.4296 10.0984 21.0154 10.0984H16.0228C15.6085 10.0984 15.2728 9.76259 15.2728 9.34838C15.2728 8.93417 15.6085 8.59838 16.0228 8.59838H19.2065L17.3039 6.69581C16.404 5.79426 15.2617 5.10958 13.9408 4.75562C9.93976 3.68356 5.82723 6.05793 4.75517 10.0589C4.64796 10.459 4.23671 10.6965 3.83661 10.5893C3.43651 10.482 3.19907 10.0708 3.30628 9.67069ZM20.1626 13.4109C20.5627 13.5181 20.8001 13.9293 20.6929 14.3294C19.4065 19.1306 14.4714 21.9799 9.67024 20.6934C8.08787 20.2694 6.71567 19.4479 5.63452 18.3648L3.73413 16.4632V19.6444C3.73413 20.0586 3.39834 20.3944 2.98413 20.3944C2.56992 20.3944 2.23413 20.0586 2.23413 19.6444V14.6517C2.23413 14.2375 2.56992 13.9017 2.98413 13.9017L7.97677 13.9017C8.39098 13.9017 8.72677 14.2375 8.72677 14.6517C8.72677 15.0659 8.39099 15.4017 7.97677 15.4017L4.79396 15.4017L6.69553 17.3045C7.59538 18.2061 8.73749 18.8906 10.0585 19.2445C14.0595 20.3166 18.172 17.9422 19.2441 13.9412C19.3513 13.5411 19.7625 13.3037 20.1626 13.4109Z" fill="#091E42"/>
</svg>
