<svg width="16" height="16" viewBox="0 0 16 16" fill="none" xmlns="http://www.w3.org/2000/svg">
<g opacity="0.7">
<path d="M4.66667 1C3.7474 1 3 1.78477 3 2.75V13.25C3 14.2152 3.7474 15 4.66667 15H11.3333C12.2526 15 13 14.2152 13 13.25V5.375H9.66667C9.20573 5.375 8.83333 4.98398 8.83333 4.5V1H4.66667ZM9.66667 1V4.5H13L9.66667 1ZM4.66667 3.1875C4.66667 2.94687 4.85417 2.75 5.08333 2.75H6.75C6.97917 2.75 7.16667 2.94687 7.16667 3.1875C7.16667 3.42812 6.97917 3.625 6.75 3.625H5.08333C4.85417 3.625 4.66667 3.42812 4.66667 3.1875ZM4.66667 4.9375C4.66667 4.69688 4.85417 4.5 5.08333 4.5H6.75C6.97917 4.5 7.16667 4.69688 7.16667 4.9375C7.16667 5.17812 6.97917 5.375 6.75 5.375H5.08333C4.85417 5.375 4.66667 5.17812 4.66667 4.9375ZM8 6.90625C8.22917 6.90625 8.41667 7.10313 8.41667 7.34375V7.8168C8.63802 7.84961 8.85156 7.90156 9.04427 7.95625C9.26562 8.01914 9.39844 8.25703 9.33854 8.49219C9.27865 8.72734 9.05208 8.86406 8.82812 8.80117C8.53906 8.71914 8.25521 8.65898 7.99219 8.65625C7.77344 8.65352 7.53906 8.70547 7.3776 8.80664C7.22917 8.89961 7.16667 9.00625 7.16667 9.15664C7.16667 9.25781 7.20052 9.33437 7.35677 9.43281C7.53646 9.54492 7.78906 9.62695 8.11719 9.73086L8.13021 9.73359C8.42448 9.82656 8.78906 9.94141 9.07552 10.1328C9.39062 10.3406 9.65885 10.6715 9.66667 11.1773C9.67448 11.7051 9.41667 12.0879 9.07031 12.3148C8.86979 12.4461 8.64323 12.5227 8.41667 12.5637V13.0312C8.41667 13.2719 8.22917 13.4688 8 13.4688C7.77083 13.4688 7.58333 13.2719 7.58333 13.0312V12.5445C7.29167 12.4871 7.01823 12.3887 6.77865 12.3012C6.72396 12.282 6.66927 12.2629 6.61719 12.2438C6.39844 12.1672 6.28125 11.9184 6.35417 11.6914C6.42708 11.4645 6.66406 11.3387 6.88021 11.4152C6.94531 11.4371 7.00521 11.459 7.0651 11.4809C7.41927 11.6066 7.70573 11.7105 8.01042 11.7188C8.2474 11.727 8.47656 11.6723 8.6276 11.5738C8.76042 11.4863 8.83333 11.3742 8.83073 11.191C8.82812 11.0652 8.78385 10.9777 8.63021 10.8738C8.45312 10.7563 8.20052 10.6715 7.875 10.5676L7.83333 10.5539C7.54688 10.4637 7.20052 10.3543 6.92708 10.1793C6.61458 9.98242 6.33854 9.6625 6.33594 9.15938C6.33333 8.62891 6.61719 8.2625 6.95573 8.05195C7.15104 7.93164 7.36719 7.85508 7.58333 7.81406V7.34375C7.58333 7.10313 7.77083 6.90625 8 6.90625Z" fill="#091E42"/>
</g>
</svg>
