<svg width="16" height="16" viewBox="0 0 16 16" fill="none" xmlns="http://www.w3.org/2000/svg">
<g opacity="0.7" clip-path="url(#clip0_2111_11036)">
<path d="M12.04 2C12.3612 2.00003 12.6715 2.11596 12.914 2.3265C13.1565 2.53704 13.3149 2.82804 13.36 3.146L13.3713 3.25L13.9547 12.5833C13.9767 12.9335 13.8598 13.2783 13.6293 13.5429C13.3988 13.8075 13.0733 13.9705 12.7233 13.9967L12.6233 14H3.37734C3.02647 14 2.68974 13.8617 2.44014 13.6151C2.19055 13.3686 2.04822 13.0335 2.04401 12.6827L2.04601 12.5833L2.62934 3.25C2.6494 2.92938 2.78455 2.62678 3.00992 2.39786C3.23529 2.16893 3.53574 2.02907 3.85601 2.004L3.96001 2H12.04ZM10 4C9.83672 4.00002 9.67911 4.05997 9.55709 4.16848C9.43507 4.27698 9.35711 4.4265 9.33801 4.58867L9.33334 4.66667C9.33334 5.02029 9.19286 5.35943 8.94282 5.60948C8.69277 5.85952 8.35363 6 8.00001 6C7.64638 6 7.30725 5.85952 7.0572 5.60948C6.80715 5.35943 6.66667 5.02029 6.66667 4.66667C6.66667 4.48986 6.59644 4.32029 6.47141 4.19526C6.34639 4.07024 6.17682 4 6.00001 4C5.8232 4 5.65363 4.07024 5.5286 4.19526C5.40358 4.32029 5.33334 4.48986 5.33334 4.66667C5.33334 5.37391 5.61429 6.05219 6.11439 6.55229C6.61449 7.05238 7.29276 7.33333 8.00001 7.33333C8.70725 7.33333 9.38553 7.05238 9.88562 6.55229C10.3857 6.05219 10.6667 5.37391 10.6667 4.66667C10.6667 4.48986 10.5964 4.32029 10.4714 4.19526C10.3464 4.07024 10.1768 4 10 4Z" fill="#155996"/>
</g>
<path d="M3.62445 9.99408C3.62445 9.26097 4.21875 8.66667 4.95186 8.66667H11.2882C12.0213 8.66667 12.6156 9.26097 12.6156 9.99408V11.3393C12.6156 12.0724 12.0213 12.6667 11.2882 12.6667H4.95186C4.21875 12.6667 3.62445 12.0724 3.62445 11.3393V9.99408Z" fill="white"/>
<path opacity="0.7" d="M6.52814 10.4786C6.65867 10.503 6.76597 10.5682 6.85004 10.6744C6.93411 10.7806 6.97614 10.9023 6.97614 11.0395C6.97614 11.1634 6.94517 11.2729 6.88322 11.368C6.82349 11.4609 6.7361 11.5339 6.62106 11.587C6.50602 11.6401 6.36996 11.6667 6.21288 11.6667H5.21401V9.35034H6.16974C6.32682 9.35034 6.46177 9.37578 6.5746 9.42667C6.68964 9.47755 6.77593 9.54835 6.83345 9.63905C6.89318 9.72976 6.92305 9.83263 6.92305 9.94767C6.92305 10.0826 6.88654 10.1955 6.81354 10.2862C6.74274 10.3769 6.64761 10.441 6.52814 10.4786ZM5.6786 10.3061H6.10337C6.21399 10.3061 6.29916 10.2817 6.3589 10.2331C6.41863 10.1822 6.4485 10.1103 6.4485 10.0174C6.4485 9.92444 6.41863 9.85254 6.3589 9.80166C6.29916 9.75078 6.21399 9.72533 6.10337 9.72533H5.6786V10.3061ZM6.14651 11.2884C6.25934 11.2884 6.34673 11.2618 6.40868 11.2087C6.47283 11.1556 6.50491 11.0804 6.50491 10.9831C6.50491 10.8835 6.47173 10.8061 6.40536 10.7508C6.33899 10.6932 6.24939 10.6645 6.13656 10.6645H5.6786V11.2884H6.14651ZM7.48911 11.1423C7.7015 10.9654 7.87074 10.8182 7.99685 10.701C8.12295 10.5815 8.22804 10.4576 8.31211 10.3293C8.39618 10.201 8.43821 10.0749 8.43821 9.95099C8.43821 9.83816 8.41166 9.74967 8.35857 9.68551C8.30547 9.62135 8.22361 9.58927 8.113 9.58927C8.00238 9.58927 7.9172 9.62688 7.85747 9.7021C7.79774 9.77511 7.76676 9.87577 7.76455 10.0041H7.31323C7.32208 9.73861 7.40062 9.53728 7.54885 9.40012C7.69929 9.26295 7.88955 9.19437 8.11963 9.19437C8.37184 9.19437 8.56542 9.26185 8.70037 9.3968C8.83533 9.52954 8.9028 9.70542 8.9028 9.92444C8.9028 10.097 8.85634 10.2618 8.76343 10.4189C8.67051 10.576 8.56431 10.7131 8.44485 10.8304C8.32538 10.9454 8.16941 11.0848 7.97694 11.2485H8.9559V11.6335H7.31655V11.2884L7.48911 11.1423ZM10.6657 10.4786C10.7962 10.503 10.9035 10.5682 10.9876 10.6744C11.0716 10.7806 11.1137 10.9023 11.1137 11.0395C11.1137 11.1634 11.0827 11.2729 11.0207 11.368C10.961 11.4609 10.8736 11.5339 10.7586 11.587C10.6435 11.6401 10.5075 11.6667 10.3504 11.6667H9.35153V9.35034H10.3073C10.4643 9.35034 10.5993 9.37578 10.7121 9.42667C10.8272 9.47755 10.9134 9.54835 10.971 9.63905C11.0307 9.72976 11.0606 9.83263 11.0606 9.94767C11.0606 10.0826 11.0241 10.1955 10.9511 10.2862C10.8803 10.3769 10.7851 10.441 10.6657 10.4786ZM9.81612 10.3061H10.2409C10.3515 10.3061 10.4367 10.2817 10.4964 10.2331C10.5562 10.1822 10.586 10.1103 10.586 10.0174C10.586 9.92444 10.5562 9.85254 10.4964 9.80166C10.4367 9.75078 10.3515 9.72533 10.2409 9.72533H9.81612V10.3061ZM10.284 11.2884C10.3969 11.2884 10.4843 11.2618 10.5462 11.2087C10.6104 11.1556 10.6424 11.0804 10.6424 10.9831C10.6424 10.8835 10.6092 10.8061 10.5429 10.7508C10.4765 10.6932 10.3869 10.6645 10.2741 10.6645H9.81612V11.2884H10.284Z" fill="#155996"/>
<defs>
<clipPath id="clip0_2111_11036">
<rect width="16" height="16" fill="white"/>
</clipPath>
</defs>
</svg>
