<svg width="24" height="24" viewBox="0 0 24 24" fill="none" xmlns="http://www.w3.org/2000/svg">
<path fill-rule="evenodd" clip-rule="evenodd" d="M12 3.75C8.27208 3.75 5.25 6.77208 5.25 10.5C5.25 13.796 6.98068 16.4303 8.78654 18.2793C9.68475 19.1989 10.5851 19.9066 11.2609 20.384C11.5588 20.5945 11.8119 20.7593 12 20.8769C12.1881 20.7593 12.4412 20.5945 12.7391 20.384C13.4149 19.9066 14.3153 19.1989 15.2135 18.2793C17.0193 16.4303 18.75 13.796 18.75 10.5C18.75 6.77208 15.7279 3.75 12 3.75ZM12 21.75C11.6397 22.4078 11.6392 22.4075 11.6392 22.4075L11.6365 22.406L11.6305 22.4027L11.6105 22.3915C11.5937 22.3821 11.57 22.3686 11.5397 22.351C11.4793 22.316 11.393 22.265 11.2845 22.1982C11.0675 22.0646 10.7612 21.8676 10.3954 21.6091C9.66491 21.0931 8.69025 20.3274 7.71346 19.3273C5.76932 17.3368 3.75 14.3462 3.75 10.5C3.75 5.94365 7.44365 2.25 12 2.25C16.5563 2.25 20.25 5.94365 20.25 10.5C20.25 14.3462 18.2307 17.3368 16.2865 19.3273C15.3097 20.3274 14.3351 21.0931 13.6046 21.6091C13.2388 21.8676 12.9325 22.0646 12.7155 22.1982C12.607 22.265 12.5207 22.316 12.4603 22.351C12.43 22.3686 12.4063 22.3821 12.3895 22.3915L12.3695 22.4027L12.3635 22.406L12.3616 22.4071C12.3616 22.4071 12.3603 22.4078 12 21.75ZM12 21.75L12.3603 22.4078C12.1358 22.5307 11.8636 22.5304 11.6392 22.4075L12 21.75ZM12 8.25C10.7574 8.25 9.75 9.25736 9.75 10.5C9.75 11.7426 10.7574 12.75 12 12.75C13.2426 12.75 14.25 11.7426 14.25 10.5C14.25 9.25736 13.2426 8.25 12 8.25ZM8.25 10.5C8.25 8.42893 9.92893 6.75 12 6.75C14.0711 6.75 15.75 8.42893 15.75 10.5C15.75 12.5711 14.0711 14.25 12 14.25C9.92893 14.25 8.25 12.5711 8.25 10.5Z" fill="#091E42"/>
</svg>
