<svg width="16" height="16" viewBox="0 0 16 16" fill="none" xmlns="http://www.w3.org/2000/svg">
<g opacity="0.7">
<path d="M7.51441 2.15603C7.65504 2.05468 7.82517 2 7.99989 2C8.1746 2 8.34473 2.05468 8.48537 2.15603L13.6658 5.89194C14.279 6.3346 13.992 7.26684 13.2622 7.33191H2.73759C2.00773 7.26684 1.72135 6.3346 2.33393 5.89194L7.51441 2.15603ZM7.99989 5.73248C8.2169 5.73248 8.42502 5.6482 8.57846 5.49817C8.73191 5.34814 8.81812 5.14467 8.81812 4.9325C8.81812 4.72033 8.73191 4.51685 8.57846 4.36683C8.42502 4.2168 8.2169 4.13252 7.99989 4.13252C7.78288 4.13252 7.57476 4.2168 7.42131 4.36683C7.26787 4.51685 7.18166 4.72033 7.18166 4.9325C7.18166 5.14467 7.26787 5.34814 7.42131 5.49817C7.57476 5.6482 7.78288 5.73248 7.99989 5.73248ZM3.77292 11.5995C3.30274 11.5995 2.85181 11.7822 2.51934 12.1072C2.18687 12.4323 2.00009 12.8731 2.00009 13.3328V13.5995C2.00002 13.6521 2.01055 13.7041 2.03108 13.7527C2.05161 13.8013 2.08173 13.8455 2.11973 13.8827C2.15772 13.9199 2.20285 13.9494 2.25252 13.9695C2.30219 13.9897 2.35543 14 2.40921 14H13.59C13.6985 14 13.8026 13.9579 13.8793 13.8829C13.956 13.8078 13.9991 13.7061 13.9991 13.6V13.3334C13.9991 12.8737 13.8124 12.4328 13.4799 12.1077C13.1474 11.7827 12.6965 11.6001 12.2263 11.6001L3.77292 11.5995Z" fill="#155996"/>
<path d="M11.8489 7.86576H11.5142C11.2302 7.86576 11 8.09596 11 8.37996L10.9996 10.5513C10.9995 10.8354 11.2298 11.0657 11.5139 11.0657H11.8489C12.133 11.0657 12.3632 10.8354 12.3632 10.5514V8.38005C12.3632 8.09601 12.133 7.86576 11.8489 7.86576Z" fill="#ADC5DB"/>
<path d="M9.90907 8.38005V10.5514C9.90907 10.8354 9.67882 11.0657 9.39479 11.0657H9.05965C8.77561 11.0657 8.54536 10.8354 8.54536 10.5514V8.38005C8.54536 8.09601 8.77561 7.86576 9.05965 7.86576H9.39479C9.67882 7.86576 9.90907 8.09601 9.90907 8.38005Z" fill="#ADC5DB"/>
<path d="M7.45439 8.38058V10.5519C7.45439 10.836 7.22414 11.0662 6.9401 11.0662H6.60496C6.32093 11.0662 6.09068 10.836 6.09068 10.5519V8.38058C6.09068 8.09655 6.32093 7.86629 6.60496 7.86629H6.9401C7.22414 7.86629 7.45439 8.09655 7.45439 8.38058Z" fill="#ADC5DB"/>
<path d="M5.00025 8.38058V10.5519C5.00025 10.836 4.77 11.0662 4.48596 11.0662H4.15082C3.86679 11.0662 3.63654 10.836 3.63654 10.5519V8.38058C3.63654 8.09655 3.86679 7.86629 4.15082 7.86629H4.48596C4.77 7.86629 5.00025 8.09655 5.00025 8.38058Z" fill="#ADC5DB"/>
</g>
</svg>
