<svg width="24" height="24" viewBox="0 0 24 24" fill="none" xmlns="http://www.w3.org/2000/svg">
<path fill-rule="evenodd" clip-rule="evenodd" d="M18.9696 3.65901C18.0909 2.78033 16.6663 2.78033 15.7876 3.65901L4.84835 14.5983L4.3802 14.1302L4.84835 14.5983C3.38388 16.0628 3.38388 18.4372 4.84835 19.9016C6.31282 21.3661 8.68718 21.3661 10.1517 19.9016L17.8446 12.2087C18.1375 11.9158 18.6124 11.9158 18.9053 12.2087C19.1982 12.5015 19.1982 12.9764 18.9053 13.2693L11.2123 20.9623C9.16206 23.0126 5.83794 23.0126 3.78769 20.9623C1.73744 18.9121 1.73744 15.5879 3.78769 13.5377L14.7269 2.59835L15.2573 3.12868L14.7269 2.59835C16.1914 1.13388 18.5658 1.13388 20.0302 2.59835C21.4947 4.06282 21.4947 6.43718 20.0302 7.90165L9.0973 18.8346C9.09521 18.8367 9.09311 18.8389 9.09099 18.841L9.08205 18.8498L9.08191 18.85L9.07747 18.8544C8.19765 19.7196 6.78319 19.7152 5.90901 18.841C5.03033 17.9623 5.03033 16.5377 5.90901 15.659C5.90901 15.659 5.90901 15.659 5.90901 15.659L13.7195 7.84833C14.0124 7.55543 14.4873 7.55543 14.7802 7.84832C15.0731 8.1412 15.0731 8.61608 14.7802 8.90898L6.96968 16.7197L6.96967 16.7197C6.67678 17.0126 6.67678 17.4874 6.96967 17.7803C7.26043 18.0711 7.7306 18.0732 8.02387 17.7867L18.9696 6.84099C19.8483 5.96231 19.8483 4.53769 18.9696 3.65901Z" fill="#091E42"/>
</svg>
