<svg width="16" height="16" viewBox="0 0 16 16" fill="none" xmlns="http://www.w3.org/2000/svg">
<path opacity="0.5" d="M3.5 2C2.67266 2 2 2.67266 2 3.5V12.5C2 13.3273 2.67266 14 3.5 14H12.5C13.3273 14 14 13.3273 14 12.5V6.25H11C10.0852 6.25 9.75 5.91484 9.75 5V2H3.5Z" fill="#1E7FD6"/>
<path fill-rule="evenodd" clip-rule="evenodd" d="M4.06436 5.5H6.09604C7.03006 5.5 7.78912 6.25906 7.78912 7.19307C7.78912 7.91263 7.34045 8.52496 6.70837 8.77045L7.92174 9.90763L8.8755 9.03288C9.10407 8.82124 9.46243 8.83817 9.67407 9.06674C9.8857 9.2953 9.86877 9.65367 9.64021 9.86531L8.74852 10.6836L9.64303 11.5217C9.8716 11.7361 9.88288 12.0917 9.66843 12.3203C9.45397 12.5488 9.09842 12.5601 8.86986 12.3457L7.91327 11.4483L6.92847 12.3513C6.69991 12.5629 6.34154 12.546 6.12991 12.3174C5.91827 12.0889 5.9352 11.7305 6.16377 11.5189L7.08367 10.6752L5.25515 8.95951C5.22976 8.93694 5.21 8.91154 5.19025 8.88614H4.62871V10.1277C4.62871 10.4381 4.37475 10.6921 4.06436 10.6921C3.75396 10.6921 3.5 10.4381 3.5 10.1277V6.06436C3.5 5.75396 3.75396 5.5 4.06436 5.5ZM6.09604 7.75717C6.40644 7.75717 6.6604 7.50321 6.6604 7.19281C6.6604 6.88242 6.40644 6.62846 6.09604 6.62846H4.62872V7.75717H6.09604Z" fill="#1E7FD6"/>
<path d="M11 4.75V2.60355C11 2.38083 11.2693 2.26929 11.4268 2.42678L13.5732 4.57322C13.7307 4.73071 13.6192 5 13.3964 5H11.25C11.1119 5 11 4.88807 11 4.75Z" fill="#1E7FD6"/>
</svg>
