<svg width="24" height="24" viewBox="0 0 24 24" fill="none" xmlns="http://www.w3.org/2000/svg">
<path fill-rule="evenodd" clip-rule="evenodd" d="M4.5 4.5C3.67157 4.5 3 5.17157 3 6V9.40135C3.44126 9.14609 3.95357 9 4.5 9H19.5C20.0464 9 20.5587 9.14609 21 9.40135V9C21 8.17157 20.3284 7.5 19.5 7.5H14.1213C13.5246 7.5 12.9523 7.26295 12.5303 6.84099L10.409 4.71967C10.2684 4.57902 10.0776 4.5 9.87868 4.5H4.5ZM21 12C21 11.1716 20.3284 10.5 19.5 10.5H4.5C3.67157 10.5 3 11.1716 3 12V18C3 18.8284 3.67157 19.5 4.5 19.5H19.5C20.3284 19.5 21 18.8284 21 18V12ZM22.5 18C22.5 19.6569 21.1569 21 19.5 21H4.5C2.84315 21 1.5 19.6569 1.5 18V6C1.5 4.34315 2.84315 3 4.5 3H9.87868C10.4754 3 11.0477 3.23705 11.4697 3.65901L13.591 5.78033C13.7316 5.92098 13.9224 6 14.1213 6H19.5C21.1569 6 22.5 7.34315 22.5 9V18Z" fill="#091E42"/>
</svg>
