<svg width="16" height="16" viewBox="0 0 16 16" fill="none" xmlns="http://www.w3.org/2000/svg">
<g opacity="0.7">
<path fill-rule="evenodd" clip-rule="evenodd" d="M8.01599 10.8423C7.75233 10.9972 7.41687 10.956 7.20065 10.7398L5.25973 8.79883C5.04372 8.58282 5.00239 8.24777 5.15685 7.98421C5.36234 7.63359 5.56707 7.27752 5.77041 6.92285C6.73803 5.24094 7.68279 3.59904 8.56851 2.74475C10.5739 0.739381 13.1977 1.37736 14.0124 1.64395C14.177 1.69781 14.3021 1.82297 14.356 1.98755C14.6226 2.80226 15.2605 5.42605 13.2552 7.43142C12.4076 8.30951 10.7914 9.24094 9.12184 10.2009C8.75313 10.4137 8.38202 10.6273 8.01599 10.8423ZM9.6066 4.88666C9.6066 4.48706 9.76534 4.10384 10.0479 3.82128C10.3304 3.53873 10.7137 3.37999 11.1133 3.37999C11.5129 3.37999 11.8961 3.53873 12.1786 3.82128C12.4612 4.10384 12.6199 4.48706 12.6199 4.88666C12.6101 5.27957 12.447 5.65306 12.1656 5.92746C11.8843 6.20186 11.5068 6.35545 11.1137 6.35545C10.7207 6.35545 10.3432 6.20186 10.0618 5.92746C9.78046 5.65306 9.61648 5.27957 9.6066 4.88666ZM3.83041 10.2314C4.21533 10.2246 4.59329 10.3346 4.91446 10.5469C5.23562 10.7591 5.48493 11.0638 5.62951 11.4206C5.77408 11.7774 5.80715 12.1696 5.72434 12.5456C5.64154 12.9215 5.44675 13.2636 5.16565 13.5267C4.95422 13.7286 4.62374 13.8876 4.31803 14.0086C3.97505 14.1405 3.62536 14.2543 3.27041 14.3495C2.92089 14.4448 2.58755 14.5209 2.33517 14.5714C2.22906 14.5932 2.12235 14.6119 2.01517 14.6276C1.97327 14.6333 1.93105 14.6375 1.88851 14.64C1.82488 14.6457 1.76075 14.6386 1.69993 14.619C1.61055 14.593 1.53075 14.5414 1.47041 14.4705C1.41859 14.4104 1.38258 14.3384 1.36565 14.2609C1.3536 14.2059 1.34975 14.1495 1.35422 14.0933C1.35708 14.0552 1.36279 14.0114 1.36851 13.9714C1.38089 13.8876 1.39993 13.7781 1.42565 13.6533C1.47613 13.4019 1.55422 13.0705 1.64946 12.7228C1.7447 12.3762 1.86089 12.0048 1.99136 11.68C2.11327 11.3743 2.27136 11.0448 2.47327 10.8343C2.64759 10.648 2.85754 10.4987 3.09067 10.3951C3.3238 10.2916 3.57535 10.2359 3.83041 10.2314Z" fill="#091E42"/>
<path opacity="0.5" d="M9.26947 13.9467L8.27311 12.2933C8.21725 12.2006 8.23707 12.0811 8.31984 12.0113C8.3288 12.0038 8.33845 11.9969 8.3485 11.9909C8.84073 11.6966 9.20334 11.5293 9.71994 11.2314L9.79899 11.1857C10.0567 11.0371 10.3156 10.8879 10.5721 10.7385C10.9555 10.5151 11.4508 10.7221 11.4309 11.1653C11.385 12.1886 10.8028 13.1536 9.99804 14.0305C9.94924 14.0824 9.88899 14.1222 9.82209 14.1467C9.75519 14.1712 9.68349 14.1797 9.61271 14.1715C9.54193 14.1634 9.47404 14.1388 9.41444 14.0998C9.35485 14.0607 9.3052 14.0083 9.26947 13.9467Z" fill="#091E42"/>
<path opacity="0.5" d="M1.96949 6.00284C2.84652 5.19858 3.81041 4.61726 4.83272 4.57043C5.27649 4.5501 5.48382 5.04632 5.26004 5.43006C5.08314 5.73342 4.9017 6.04839 4.72187 6.36093C4.42805 6.86946 4.26556 7.22062 4.00875 7.65196C4.00295 7.6617 3.99635 7.67103 3.9891 7.67975C3.91976 7.76314 3.79991 7.78339 3.70702 7.72741L2.05425 6.73141C1.99255 6.69576 1.94004 6.64618 1.9009 6.58663C1.86177 6.52707 1.8371 6.4592 1.82887 6.38841C1.82063 6.31763 1.82906 6.24591 1.85348 6.17896C1.87789 6.11201 1.91762 6.0517 1.96949 6.00284Z" fill="#091E42"/>
</g>
</svg>
