<svg width="24" height="24" viewBox="0 0 24 24" fill="none" xmlns="http://www.w3.org/2000/svg">
<path fill-rule="evenodd" clip-rule="evenodd" d="M12 1.5C12.4142 1.5 12.75 1.83579 12.75 2.25L12.75 13.1893L14.4697 11.4697C14.7626 11.1768 15.2374 11.1768 15.5303 11.4697C15.8232 11.7626 15.8232 12.2374 15.5303 12.5303L12.5303 15.5303C12.3897 15.671 12.1989 15.75 12 15.75C11.8011 15.75 11.6103 15.671 11.4697 15.5303L8.46967 12.5303C8.17678 12.2374 8.17678 11.7626 8.46967 11.4697C8.76256 11.1768 9.23744 11.1768 9.53033 11.4697L11.25 13.1893L11.25 2.25C11.25 1.83579 11.5858 1.5 12 1.5ZM7.5 9C6.67157 9 6 9.67157 6 10.5V19.5C6 20.3284 6.67157 21 7.5 21H16.5C17.3284 21 18 20.3284 18 19.5V10.5C18 9.67157 17.3284 9 16.5 9H15C14.5858 9 14.25 8.66421 14.25 8.25C14.25 7.83579 14.5858 7.5 15 7.5H16.5C18.1569 7.5 19.5 8.84315 19.5 10.5V19.5C19.5 21.1569 18.1569 22.5 16.5 22.5H7.5C5.84315 22.5 4.5 21.1569 4.5 19.5V10.5C4.5 8.84315 5.84315 7.5 7.5 7.5H9C9.41421 7.5 9.75 7.83579 9.75 8.25C9.75 8.66421 9.41421 9 9 9H7.5Z" fill="#091E42"/>
</svg>
