<svg width="24" height="24" viewBox="0 0 24 24" fill="none" xmlns="http://www.w3.org/2000/svg">
<path fill-rule="evenodd" clip-rule="evenodd" d="M2.25 6C2.25 4.34315 3.59315 3 5.25 3H18.75C20.4069 3 21.75 4.34315 21.75 6V18C21.75 19.6569 20.4069 21 18.75 21H5.25C3.59315 21 2.25 19.6569 2.25 18V6ZM3.75 6.40135V6C3.75 5.17157 4.42157 4.5 5.25 4.5H18.75C19.5784 4.5 20.25 5.17157 20.25 6V6.40135C19.8087 6.14609 19.2964 6 18.75 6H5.25C4.70357 6 4.19126 6.14609 3.75 6.40135ZM20.25 9C20.25 8.17157 19.5784 7.5 18.75 7.5H5.25C4.42157 7.5 3.75 8.17157 3.75 9V9.40135C4.19126 9.14609 4.70357 9 5.25 9H9C9.41421 9 9.75 9.33579 9.75 9.75C9.75 10.9926 10.7574 12 12 12C13.2426 12 14.25 10.9926 14.25 9.75C14.25 9.33579 14.5858 9 15 9H18.75C19.2964 9 19.8087 9.14609 20.25 9.40135V9ZM20.25 12C20.25 11.1716 19.5784 10.5 18.75 10.5H15.675C15.3275 12.2117 13.8142 13.5 12 13.5C10.1858 13.5 8.67247 12.2117 8.32501 10.5H5.25C4.42157 10.5 3.75 11.1716 3.75 12V18C3.75 18.8284 4.42157 19.5 5.25 19.5H18.75C19.5784 19.5 20.25 18.8284 20.25 18V12Z" fill="#091E42"/>
</svg>
