<svg width="24" height="24" viewBox="0 0 24 24" fill="none" xmlns="http://www.w3.org/2000/svg">
<path fill-rule="evenodd" clip-rule="evenodd" d="M2.25 4.875C2.25 3.83947 3.08947 3 4.125 3H15.375C16.4105 3 17.25 3.83947 17.25 4.875V6.75H19.875C20.9105 6.75 21.75 7.58947 21.75 8.625V18C21.75 19.6569 20.4069 21 18.75 21H5.25C3.59315 21 2.25 19.6569 2.25 18V4.875ZM16.1513 19.5H5.25C4.42157 19.5 3.75 18.8284 3.75 18V4.875C3.75 4.66789 3.91789 4.5 4.125 4.5H15.375C15.5821 4.5 15.75 4.66789 15.75 4.875V18C15.75 18.5464 15.8961 19.0587 16.1513 19.5ZM18.75 19.5C19.5784 19.5 20.25 18.8284 20.25 18V8.625C20.25 8.41789 20.0821 8.25 19.875 8.25H17.25V18C17.25 18.8284 17.9216 19.5 18.75 19.5ZM5.25 7.5C5.25 7.08579 5.58579 6.75 6 6.75H9C9.41421 6.75 9.75 7.08579 9.75 7.5V10.5C9.75 10.9142 9.41421 11.25 9 11.25H6C5.58579 11.25 5.25 10.9142 5.25 10.5V7.5ZM6.75 8.25V9.75H8.25V8.25H6.75ZM11.25 7.5C11.25 7.08579 11.5858 6.75 12 6.75H13.5C13.9142 6.75 14.25 7.08579 14.25 7.5C14.25 7.91421 13.9142 8.25 13.5 8.25H12C11.5858 8.25 11.25 7.91421 11.25 7.5ZM11.25 10.5C11.25 10.0858 11.5858 9.75 12 9.75H13.5C13.9142 9.75 14.25 10.0858 14.25 10.5C14.25 10.9142 13.9142 11.25 13.5 11.25H12C11.5858 11.25 11.25 10.9142 11.25 10.5ZM5.25 13.5C5.25 13.0858 5.58579 12.75 6 12.75H13.5C13.9142 12.75 14.25 13.0858 14.25 13.5C14.25 13.9142 13.9142 14.25 13.5 14.25H6C5.58579 14.25 5.25 13.9142 5.25 13.5ZM5.25 16.5C5.25 16.0858 5.58579 15.75 6 15.75H13.5C13.9142 15.75 14.25 16.0858 14.25 16.5C14.25 16.9142 13.9142 17.25 13.5 17.25H6C5.58579 17.25 5.25 16.9142 5.25 16.5Z" fill="#091E42"/>
</svg>
