<svg width="24" height="24" viewBox="0 0 24 24" fill="none" xmlns="http://www.w3.org/2000/svg">
<path fill-rule="evenodd" clip-rule="evenodd" d="M10.5 0.75C10.9142 0.75 11.25 1.08579 11.25 1.5L11.25 12.4393L12.9697 10.7197C13.2626 10.4268 13.7374 10.4268 14.0303 10.7197C14.3232 11.0126 14.3232 11.4874 14.0303 11.7803L11.0303 14.7803C10.8897 14.921 10.6989 15 10.5 15C10.3011 15 10.1103 14.921 9.96967 14.7803L6.96967 11.7803C6.67678 11.4874 6.67678 11.0126 6.96967 10.7197C7.26256 10.4268 7.73744 10.4268 8.03033 10.7197L9.75 12.4393L9.75 1.5C9.75 1.08579 10.0858 0.75 10.5 0.75ZM6.75 8.25C5.92157 8.25 5.25 8.92157 5.25 9.75V17.25C5.25 18.0784 5.92157 18.75 6.75 18.75H14.25C15.0784 18.75 15.75 18.0784 15.75 17.25V9.75C15.75 8.92157 15.0784 8.25 14.25 8.25H13.5C13.0858 8.25 12.75 7.91421 12.75 7.5C12.75 7.08579 13.0858 6.75 13.5 6.75H14.25C15.9069 6.75 17.25 8.09315 17.25 9.75C18.9069 9.75 20.25 11.0931 20.25 12.75V20.25C20.25 21.9069 18.9069 23.25 17.25 23.25H9.75C8.09315 23.25 6.75 21.9069 6.75 20.25C5.09315 20.25 3.75 18.9069 3.75 17.25V9.75C3.75 8.09315 5.09315 6.75 6.75 6.75H7.5C7.91421 6.75 8.25 7.08579 8.25 7.5C8.25 7.91421 7.91421 8.25 7.5 8.25H6.75ZM8.25 20.25C8.25 21.0784 8.92157 21.75 9.75 21.75H17.25C18.0784 21.75 18.75 21.0784 18.75 20.25V12.75C18.75 11.9216 18.0784 11.25 17.25 11.25V17.25C17.25 18.9069 15.9069 20.25 14.25 20.25H8.25Z" fill="#091E42"/>
</svg>
