<svg width="24" height="24" viewBox="0 0 24 24" fill="none" xmlns="http://www.w3.org/2000/svg">
<path fill-rule="evenodd" clip-rule="evenodd" d="M13.5 3C12.8267 3 12.2552 3.44413 12.0662 4.05717C12.0234 4.19622 12 4.34469 12 4.5H16.5C16.5 4.34469 16.4766 4.19622 16.4338 4.05717C16.2448 3.44413 15.6733 3 15 3H13.5ZM10.837 3.11765C11.3367 2.15693 12.3409 1.5 13.5 1.5H15C16.1591 1.5 17.1633 2.15693 17.663 3.11765C17.8877 3.13319 18.1121 3.15026 18.3359 3.16884C19.8752 3.2966 21 4.60282 21 6.10822V16.5C21 18.1569 19.6569 19.5 18 19.5H16.5V20.625C16.5 21.6605 15.6605 22.5 14.625 22.5H4.875C3.83947 22.5 3 21.6605 3 20.625V9.375C3 8.33947 3.83947 7.5 4.875 7.5H7.5V6.10822C7.5 4.60283 8.62475 3.2966 10.164 3.16884C10.3879 3.15026 10.6123 3.13319 10.837 3.11765ZM10.507 4.64604C10.434 4.65177 10.361 4.65765 10.2881 4.6637C9.56523 4.7237 9 5.34365 9 6.10822V7.5H14.625C15.6605 7.5 16.5 8.33947 16.5 9.375V18H18C18.8284 18 19.5 17.3284 19.5 16.5V6.10822C19.5 5.34365 18.9348 4.7237 18.2119 4.6637C18.139 4.65765 18.066 4.65177 17.993 4.64604C17.9196 5.40594 17.2792 6 16.5 6H12C11.2208 6 10.5804 5.40594 10.507 4.64604ZM15 9.375C15 9.16789 14.8321 9 14.625 9H4.875C4.66789 9 4.5 9.16789 4.5 9.375V20.625C4.5 20.8321 4.66789 21 4.875 21H14.625C14.8321 21 15 20.8321 15 20.625V9.375ZM6 12C6 11.5858 6.33579 11.25 6.75 11.25H6.7575C7.17171 11.25 7.5075 11.5858 7.5075 12V12.0075C7.5075 12.4217 7.17171 12.7575 6.7575 12.7575H6.75C6.33579 12.7575 6 12.4217 6 12.0075V12ZM8.25 12C8.25 11.5858 8.58579 11.25 9 11.25H12.75C13.1642 11.25 13.5 11.5858 13.5 12C13.5 12.4142 13.1642 12.75 12.75 12.75H9C8.58579 12.75 8.25 12.4142 8.25 12ZM6 15C6 14.5858 6.33579 14.25 6.75 14.25H6.7575C7.17171 14.25 7.5075 14.5858 7.5075 15V15.0075C7.5075 15.4217 7.17171 15.7575 6.7575 15.7575H6.75C6.33579 15.7575 6 15.4217 6 15.0075V15ZM8.25 15C8.25 14.5858 8.58579 14.25 9 14.25H12.75C13.1642 14.25 13.5 14.5858 13.5 15C13.5 15.4142 13.1642 15.75 12.75 15.75H9C8.58579 15.75 8.25 15.4142 8.25 15ZM6 18C6 17.5858 6.33579 17.25 6.75 17.25H6.7575C7.17171 17.25 7.5075 17.5858 7.5075 18V18.0075C7.5075 18.4217 7.17171 18.7575 6.7575 18.7575H6.75C6.33579 18.7575 6 18.4217 6 18.0075V18ZM8.25 18C8.25 17.5858 8.58579 17.25 9 17.25H12.75C13.1642 17.25 13.5 17.5858 13.5 18C13.5 18.4142 13.1642 18.75 12.75 18.75H9C8.58579 18.75 8.25 18.4142 8.25 18Z" fill="#091E42"/>
</svg>
