<svg width="16" height="16" viewBox="0 0 16 16" fill="none" xmlns="http://www.w3.org/2000/svg">
<g opacity="0.7">
<path fill-rule="evenodd" clip-rule="evenodd" d="M3.72928 3.32666L3.02462 5.58533C2.90749 5.7859 2.82965 6.00695 2.79528 6.23666L2.72728 6.68866C2.46357 8.44311 2.48834 10.2289 2.80062 11.9753C2.8623 12.3201 3.03479 12.6354 3.29191 12.8733C3.54903 13.1111 3.87673 13.2586 4.22528 13.2933L5.04528 13.3753C7.01061 13.57 8.98928 13.57 10.9539 13.3753L11.7739 13.294C12.1227 13.2594 12.4506 13.1119 12.7079 12.8738C12.9652 12.6358 13.1377 12.3203 13.1993 11.9753C13.5119 10.2287 13.5366 8.44333 13.2726 6.68866L13.2046 6.23666C13.169 5.99767 13.0863 5.76813 12.9613 5.56133L12.2699 3.32999C12.1822 3.04667 12.0157 2.79419 11.7897 2.6021C11.5637 2.41002 11.2877 2.28626 10.9939 2.24533C9.00729 1.96892 6.99194 1.96892 5.00528 2.24533C4.71197 2.28607 4.43628 2.40936 4.21036 2.60081C3.98443 2.79227 3.81759 3.044 3.72928 3.32666ZM10.8559 3.23533C8.96063 2.97162 7.03793 2.97162 5.14262 3.23533C5.03713 3.25008 4.938 3.29452 4.8568 3.36345C4.77559 3.43238 4.71565 3.52297 4.68395 3.62466L4.34995 4.69533C4.37462 4.69199 4.39995 4.68866 4.42528 4.68666L5.07728 4.62199C7.02128 4.42866 8.97862 4.42866 10.9226 4.62199L11.5746 4.68666C11.5986 4.68866 11.6219 4.69199 11.6459 4.69466L11.3146 3.62533C11.2832 3.52343 11.2233 3.43262 11.1421 3.36354C11.0608 3.29446 10.9616 3.24998 10.8559 3.23533ZM10.6666 7.83333C10.7992 7.83333 10.9264 7.78065 11.0202 7.68688C11.1139 7.59311 11.1666 7.46593 11.1666 7.33332C11.1666 7.20072 11.1139 7.07354 11.0202 6.97977C10.9264 6.886 10.7992 6.83332 10.6666 6.83332H5.33328C5.20067 6.83332 5.0735 6.886 4.97973 6.97977C4.88596 7.07354 4.83328 7.20072 4.83328 7.33332C4.83328 7.46593 4.88596 7.59311 4.97973 7.68688C5.0735 7.78065 5.20067 7.83333 5.33328 7.83333H10.6666Z" fill="#091E42"/>
</g>
</svg>
