<svg width="24" height="24" viewBox="0 0 24 24" fill="none" xmlns="http://www.w3.org/2000/svg">
<path fill-rule="evenodd" clip-rule="evenodd" d="M1.5 3C1.5 2.58579 1.83579 2.25 2.25 2.25H3.63568C4.48515 2.25 5.2285 2.82109 5.44738 3.64188L5.67868 4.50926C6.03505 4.5031 6.39217 4.5 6.75 4.5C11.9536 4.5 17.0055 5.15442 21.8273 6.38583C22.0294 6.43743 22.2008 6.57082 22.3005 6.75399C22.4002 6.93716 22.4191 7.15357 22.3527 7.35126C21.5183 9.83603 20.5277 12.249 19.3925 14.5785C19.2668 14.8364 19.0051 15 18.7183 15H7.5C6.52034 15 5.68691 15.6261 5.37803 16.5H20.25C20.6642 16.5 21 16.8358 21 17.25C21 17.6642 20.6642 18 20.25 18H4.5C4.08579 18 3.75 17.6642 3.75 17.25C3.75 15.5051 4.94178 14.0385 6.55576 13.6199L4.38122 5.46534L4.38122 5.46534L3.99803 4.02838L3.99803 4.02837C3.95425 3.86422 3.80558 3.75 3.63568 3.75H2.25C1.83579 3.75 1.5 3.41421 1.5 3ZM6.07721 6.00374L8.07621 13.5H18.2474C19.154 11.6014 19.9625 9.64695 20.6664 7.6433C16.2038 6.56917 11.5439 6 6.75 6C6.52544 6 6.30117 6.00125 6.07721 6.00374ZM3.75 20.25C3.75 19.4216 4.42157 18.75 5.25 18.75C6.07843 18.75 6.75 19.4216 6.75 20.25C6.75 21.0784 6.07843 21.75 5.25 21.75C4.42157 21.75 3.75 21.0784 3.75 20.25ZM16.5 20.25C16.5 19.4216 17.1716 18.75 18 18.75C18.8284 18.75 19.5 19.4216 19.5 20.25C19.5 21.0784 18.8284 21.75 18 21.75C17.1716 21.75 16.5 21.0784 16.5 20.25Z" fill="#091E42"/>
</svg>
