<svg width="16" height="16" viewBox="0 0 16 16" fill="none" xmlns="http://www.w3.org/2000/svg">
<g opacity="0.7" clip-path="url(#clip0_1800_4344)">
<path fill-rule="evenodd" clip-rule="evenodd" d="M7.33333 1.61534C7.51862 1.50837 7.72692 1.44756 7.94066 1.43805C8.15439 1.42853 8.36727 1.47059 8.56133 1.56067L8.66666 1.61534L10.8867 2.89667C11.0734 3.00451 11.2311 3.15601 11.3464 3.33819C11.4617 3.52037 11.5311 3.72779 11.5487 3.94267L11.5533 4.05134V6.61534L13.7733 7.89667C13.96 8.00451 14.1178 8.15601 14.2331 8.33819C14.3484 8.52037 14.4178 8.72779 14.4353 8.94267L14.44 9.05134V11.6153C14.44 11.8308 14.3878 12.0431 14.2878 12.2339C14.1878 12.4248 14.0431 12.5886 13.866 12.7113L13.7733 12.77L11.5533 14.0513C11.368 14.1584 11.1595 14.2193 10.9457 14.2288C10.7318 14.2383 10.5188 14.1962 10.3247 14.106L10.22 14.0513L8 12.77L5.78 14.0513C5.59463 14.1584 5.3862 14.2193 5.17234 14.2288C4.95848 14.2383 4.74548 14.1962 4.55133 14.106L4.44666 14.0513L2.22666 12.77C2.04006 12.6622 1.88236 12.5108 1.76707 12.3288C1.65177 12.1467 1.58232 11.9394 1.56466 11.7247L1.56 11.6153V9.05134C1.56 8.83587 1.61221 8.62361 1.71218 8.43273C1.81215 8.24185 1.95688 8.07805 2.134 7.95534L2.22666 7.89667L4.44666 6.61534V4.05134C4.44666 3.83587 4.49888 3.62361 4.59885 3.43273C4.69881 3.24185 4.84355 3.07805 5.02066 2.95534L5.11333 2.89667L7.33333 1.61534ZM10.8867 7.77L8.756 9L10.8867 10.23L13.0173 9L10.8867 7.77ZM5.11333 7.77L2.98266 9L5.11333 10.23L7.244 9L5.11333 7.77ZM8 2.77L5.86933 4L8 5.23L10.1307 4L8 2.77Z" fill="#091E42"/>
</g>
<defs>
<clipPath id="clip0_1800_4344">
<rect width="16" height="16" fill="white"/>
</clipPath>
</defs>
</svg>
