<svg width="16" height="16" viewBox="0 0 16 16" fill="none" xmlns="http://www.w3.org/2000/svg">
<g opacity="0.7">
<path opacity="0.5" d="M4.66667 1C3.7474 1 3 1.78477 3 2.75V13.25C3 14.2152 3.7474 15 4.66667 15H11.3333C12.2526 15 13 14.2152 13 13.25V5.375H9.66667C9.20573 5.375 8.83333 4.98398 8.83333 4.5V1H4.66667ZM9.66667 1V4.5H13L9.66667 1ZM4.66667 3.1875C4.66667 2.94687 4.85417 2.75 5.08333 2.75H6.75C6.97917 2.75 7.16667 2.94687 7.16667 3.1875C7.16667 3.42812 6.97917 3.625 6.75 3.625H5.08333C4.85417 3.625 4.66667 3.42812 4.66667 3.1875ZM4.66667 4.9375C4.66667 4.69688 4.85417 4.5 5.08333 4.5H6.75C6.97917 4.5 7.16667 4.69688 7.16667 4.9375C7.16667 5.17812 6.97917 5.375 6.75 5.375H5.08333C4.85417 5.375 4.66667 5.17812 4.66667 4.9375Z" fill="#155996"/>
<path d="M13.525 7.25C13.7257 7.25002 13.9197 7.32248 14.0713 7.45406C14.2228 7.58565 14.3218 7.76752 14.35 7.96625L14.3571 8.03125L14.7217 13.8646C14.7355 14.0835 14.6624 14.299 14.5183 14.4643C14.3743 14.6297 14.1708 14.7316 13.9521 14.7479L13.8896 14.75H8.11086C7.89157 14.75 7.68111 14.6636 7.52511 14.5095C7.36912 14.3553 7.28016 14.1459 7.27753 13.9267L7.27878 13.8646L7.64336 8.03125C7.6559 7.83086 7.74036 7.64174 7.88122 7.49866C8.02208 7.35558 8.20986 7.26817 8.41003 7.2525L8.47503 7.25H13.525ZM12.25 8.91667C12.148 8.91668 12.0495 8.95415 11.9732 9.02196C11.8969 9.08978 11.8482 9.18323 11.8363 9.28458L11.8334 9.33333C11.8334 9.55435 11.7456 9.76631 11.5893 9.92259C11.433 10.0789 11.221 10.1667 11 10.1667C10.779 10.1667 10.5671 10.0789 10.4108 9.92259C10.2545 9.76631 10.1667 9.55435 10.1667 9.33333C10.1667 9.22283 10.1228 9.11685 10.0447 9.03871C9.96651 8.96057 9.86053 8.91667 9.75003 8.91667C9.63952 8.91667 9.53354 8.96057 9.4554 9.03871C9.37726 9.11685 9.33336 9.22283 9.33336 9.33333C9.33336 9.77536 9.50895 10.1993 9.82152 10.5118C10.1341 10.8244 10.558 11 11 11C11.4421 11 11.866 10.8244 12.1785 10.5118C12.4911 10.1993 12.6667 9.77536 12.6667 9.33333C12.6667 9.22283 12.6228 9.11685 12.5447 9.03871C12.4665 8.96057 12.3605 8.91667 12.25 8.91667Z" fill="#155996"/>
</g>
</svg>
