<svg width="16" height="16" viewBox="0 0 16 16" fill="none" xmlns="http://www.w3.org/2000/svg">
<g opacity="0.7">
<path fill-rule="evenodd" clip-rule="evenodd" d="M9.51936 1.43467C9.27269 1.33334 8.95936 1.33334 8.33336 1.33334C7.70736 1.33334 7.39403 1.33334 7.14736 1.43467C6.819 1.56948 6.55761 1.82918 6.42069 2.15667C6.35803 2.30534 6.33403 2.47934 6.32403 2.732C6.31958 2.91507 6.26852 3.09398 6.17566 3.25182C6.0828 3.40965 5.95122 3.54119 5.79336 3.634C5.63252 3.7234 5.45172 3.77077 5.26771 3.7717C5.0837 3.77263 4.90243 3.7271 4.74069 3.63934C4.51536 3.52067 4.35203 3.45534 4.19069 3.434C3.83773 3.38766 3.48074 3.48254 3.19736 3.698C2.98536 3.85934 2.82869 4.12867 2.51603 4.66667C2.20269 5.20467 2.04669 5.47334 2.01136 5.73667C1.96469 6.08734 2.06069 6.442 2.27803 6.72267C2.37669 6.85067 2.51603 6.958 2.73136 7.09267C3.04936 7.29067 3.25336 7.628 3.25336 8C3.25336 8.372 3.04936 8.70934 2.73203 8.90667C2.51603 9.042 2.37669 9.14934 2.27736 9.27734C2.17008 9.41596 2.09134 9.57448 2.04568 9.74371C2.00003 9.91295 1.98836 10.0896 2.01136 10.2633C2.04669 10.526 2.20269 10.7953 2.51603 11.3333C2.82936 11.8713 2.98536 12.14 3.19736 12.302C3.48003 12.5173 3.83736 12.612 4.19069 12.566C4.35203 12.5447 4.51536 12.4793 4.74069 12.3607C4.90251 12.2728 5.0839 12.2272 5.26805 12.2281C5.45219 12.2291 5.63311 12.2765 5.79403 12.366C6.11803 12.5527 6.31003 12.896 6.32403 13.268C6.33403 13.5213 6.35803 13.6947 6.42069 13.8433C6.55669 14.17 6.81803 14.43 7.14736 14.5653C7.39403 14.6667 7.70736 14.6667 8.33336 14.6667C8.95936 14.6667 9.27269 14.6667 9.51936 14.5653C9.84773 14.4305 10.1091 14.1708 10.246 13.8433C10.3087 13.6947 10.3327 13.5213 10.3427 13.268C10.356 12.896 10.5487 12.552 10.8734 12.366C11.0342 12.2766 11.215 12.2292 11.399 12.2283C11.583 12.2274 11.7643 12.2729 11.926 12.3607C12.1514 12.4793 12.3147 12.5447 12.476 12.566C12.8294 12.6127 13.1867 12.5173 13.4694 12.302C13.6814 12.1407 13.838 11.8713 14.1507 11.3333C14.464 10.7953 14.62 10.5267 14.6554 10.2633C14.6783 10.0895 14.6665 9.91288 14.6207 9.74364C14.575 9.5744 14.4961 9.41591 14.3887 9.27734C14.29 9.14934 14.1507 9.042 13.9354 8.90734C13.6174 8.70934 13.4134 8.372 13.4134 8C13.4134 7.628 13.6174 7.29067 13.9347 7.09334C14.1507 6.958 14.29 6.85067 14.3894 6.72267C14.4966 6.58404 14.5754 6.42553 14.621 6.25629C14.6667 6.08705 14.6784 5.91044 14.6554 5.73667C14.62 5.474 14.464 5.20467 14.1507 4.66667C13.8374 4.12867 13.6814 3.86 13.4694 3.698C13.186 3.48254 12.829 3.38766 12.476 3.434C12.3147 3.45534 12.1514 3.52067 11.926 3.63934C11.7642 3.72722 11.5828 3.77281 11.3987 3.77188C11.2145 3.77095 11.0336 3.72352 10.8727 3.634C10.715 3.54111 10.5835 3.40953 10.4908 3.2517C10.398 3.09388 10.3471 2.91501 10.3427 2.732C10.3327 2.47867 10.3087 2.30534 10.246 2.15667C10.1783 1.99449 10.0792 1.84726 9.95452 1.72337C9.82984 1.59949 9.68197 1.50139 9.51936 1.43467ZM8.33336 10C9.44669 10 10.3487 9.10467 10.3487 8C10.3487 6.89534 9.44603 6 8.33336 6C7.22003 6 6.31803 6.89534 6.31803 8C6.31803 9.10467 7.22069 10 8.33336 10Z" fill="#155996"/>
</g>
</svg>
