<svg width="16" height="16" viewBox="0 0 16 16" fill="none" xmlns="http://www.w3.org/2000/svg">
<g opacity="0.7">
<path fill-rule="evenodd" clip-rule="evenodd" d="M12.0053 1.99133C12.8933 1.48333 14 2.12467 14 3.14867V11.518C14 12.5413 12.894 13.1833 12.0053 12.6753L9.33331 11.1487V3.518L12.0053 1.99133ZM7.99998 4H4.66665C3.84001 3.99917 3.04256 4.30552 2.42909 4.85958C1.81563 5.41364 1.42992 6.17589 1.34684 6.99834C1.26376 7.82079 1.48925 8.64476 1.97952 9.31032C2.4698 9.97587 3.18988 10.4355 3.99998 10.6V13C3.99998 13.442 4.17558 13.866 4.48814 14.1785C4.8007 14.4911 5.22462 14.6667 5.66665 14.6667C6.10867 14.6667 6.5326 14.4911 6.84516 14.1785C7.15772 13.866 7.33331 13.442 7.33331 13V10.6667H7.99998V4Z" fill="#155996"/>
</g>
</svg>
