<svg width="24" height="24" viewBox="0 0 24 24" fill="none" xmlns="http://www.w3.org/2000/svg">
<path fill-rule="evenodd" clip-rule="evenodd" d="M12 3C10.3431 3 8.99995 4.34315 8.99995 6V6.75H15V6C15 4.34315 13.6568 3 12 3ZM16.5 6.75V6C16.5 3.51472 14.4852 1.5 12 1.5C9.51467 1.5 7.49995 3.51472 7.49995 6V6.75H5.51275C4.5532 6.75 3.7485 7.47444 3.64805 8.42872L2.38489 20.4287C2.26836 21.5358 3.1364 22.5 4.24959 22.5H19.7503C20.8635 22.5 21.7316 21.5358 21.615 20.4287L20.3519 8.42872C20.2514 7.47444 19.4467 6.75 18.4872 6.75H16.5ZM15 8.25H8.99995V9.66146C9.23011 9.86745 9.37495 10.1668 9.37495 10.5C9.37495 11.1213 8.87127 11.625 8.24995 11.625C7.62863 11.625 7.12495 11.1213 7.12495 10.5C7.12495 10.1668 7.2698 9.86745 7.49995 9.66146V8.25H5.51275C5.32084 8.25 5.1599 8.39489 5.13981 8.58574L3.87665 20.5857C3.85334 20.8072 4.02695 21 4.24959 21H19.7503C19.973 21 20.1466 20.8072 20.1233 20.5857L18.8601 8.58574C18.84 8.39489 18.6791 8.25 18.4872 8.25H16.5V9.66146C16.7301 9.86746 16.875 10.1668 16.875 10.5C16.875 11.1213 16.3713 11.625 15.75 11.625C15.1286 11.625 14.625 11.1213 14.625 10.5C14.625 10.1668 14.7698 9.86745 15 9.66146V8.25Z" fill="#091E42"/>
</svg>
