<svg width="16" height="16" viewBox="0 0 16 16" fill="none" xmlns="http://www.w3.org/2000/svg">
<g opacity="0.5" clip-path="url(#clip0_1525_5862)">
<path d="M12.04 2C12.3612 2.00003 12.6715 2.11596 12.914 2.3265C13.1565 2.53704 13.3149 2.82804 13.36 3.146L13.3713 3.25L13.9547 12.5833C13.9767 12.9335 13.8598 13.2783 13.6293 13.5429C13.3988 13.8075 13.0733 13.9705 12.7233 13.9967L12.6233 14H3.37734C3.02647 14 2.68974 13.8617 2.44014 13.6151C2.19055 13.3686 2.04822 13.0335 2.04401 12.6827L2.04601 12.5833L2.62934 3.25C2.6494 2.92938 2.78455 2.62678 3.00992 2.39786C3.23529 2.16893 3.53574 2.02907 3.85601 2.004L3.96001 2H12.04ZM10 4.66667C9.83672 4.66669 9.67911 4.72664 9.55709 4.83514C9.43507 4.94365 9.35711 5.09317 9.33801 5.25533L9.33334 5.33333C9.33334 5.68696 9.19286 6.02609 8.94282 6.27614C8.69277 6.52619 8.35363 6.66667 8.00001 6.66667C7.64638 6.66667 7.30725 6.52619 7.0572 6.27614C6.80715 6.02609 6.66667 5.68696 6.66667 5.33333C6.66667 5.15652 6.59644 4.98695 6.47141 4.86193C6.34639 4.7369 6.17682 4.66667 6.00001 4.66667C5.8232 4.66667 5.65363 4.7369 5.5286 4.86193C5.40358 4.98695 5.33334 5.15652 5.33334 5.33333C5.33334 6.04058 5.61429 6.71885 6.11439 7.21895C6.61449 7.71905 7.29276 8 8.00001 8C8.70725 8 9.38553 7.71905 9.88562 7.21895C10.3857 6.71885 10.6667 6.04058 10.6667 5.33333C10.6667 5.15652 10.5964 4.98695 10.4714 4.86193C10.3464 4.7369 10.1768 4.66667 10 4.66667Z" fill="#091E42"/>
</g>
<defs>
<clipPath id="clip0_1525_5862">
<rect width="16" height="16" fill="white"/>
</clipPath>
</defs>
</svg>
