<svg width="24" height="24" viewBox="0 0 24 24" fill="none" xmlns="http://www.w3.org/2000/svg">
<path fill-rule="evenodd" clip-rule="evenodd" d="M5.625 3C5.41789 3 5.25 3.16789 5.25 3.375V20.625C5.25 20.8321 5.41789 21 5.625 21H18.375C18.5821 21 18.75 20.8321 18.75 20.625V11.625C18.75 10.1753 17.5747 9 16.125 9H14.625C13.5895 9 12.75 8.16053 12.75 7.125V5.625C12.75 4.17525 11.5747 3 10.125 3H5.625ZM13.757 3.66785C14.0715 4.25019 14.25 4.91675 14.25 5.625V7.125C14.25 7.33211 14.4179 7.5 14.625 7.5H16.125C16.8332 7.5 17.4998 7.6785 18.0822 7.99296C17.2488 6.05549 15.6945 4.50123 13.757 3.66785ZM20.25 20.625C20.25 21.6605 19.4105 22.5 18.375 22.5H5.625C4.58947 22.5 3.75 21.6605 3.75 20.625V3.375C3.75 2.33947 4.58947 1.5 5.625 1.5H10.5C15.8848 1.5 20.25 5.86522 20.25 11.25V20.625ZM15.4359 11.3897C15.773 11.6305 15.8511 12.0989 15.6103 12.4359L11.8603 17.6859C11.7322 17.8653 11.5316 17.9793 11.3119 17.9974C11.0921 18.0156 10.8756 17.9362 10.7197 17.7803L8.46967 15.5303C8.17678 15.2374 8.17678 14.7626 8.46967 14.4697C8.76256 14.1768 9.23744 14.1768 9.53033 14.4697L11.1543 16.0936L14.3897 11.5641C14.6305 11.227 15.0989 11.1489 15.4359 11.3897Z" fill="#091E42"/>
</svg>
