<svg width="24" height="24" viewBox="0 0 24 24" fill="none" xmlns="http://www.w3.org/2000/svg">
<path fill-rule="evenodd" clip-rule="evenodd" d="M2.46964 2.46967C2.76253 2.17678 3.23741 2.17678 3.5303 2.46967L6.33755 5.27692C8.00113 4.30617 9.93652 3.75 11.9999 3.75C17.0968 3.75 21.4001 7.13879 22.7835 11.7845C22.8251 11.9241 22.8251 12.0727 22.7836 12.2124C22.1093 14.4791 20.7409 16.4451 18.9259 17.8652L21.5303 20.4697C21.8232 20.7626 21.8232 21.2374 21.5303 21.5303C21.2374 21.8232 20.7625 21.8232 20.4696 21.5303L2.46964 3.53033C2.17675 3.23744 2.17675 2.76256 2.46964 2.46967ZM17.8561 16.7955C19.4449 15.5998 20.6558 13.9302 21.2795 11.9986C20.0136 8.08178 16.3366 5.25 11.9999 5.25C10.3517 5.25 8.8004 5.65845 7.44018 6.37955L9.93201 8.87138C10.5247 8.479 11.236 8.25 12 8.25C14.071 8.25 15.75 9.92893 15.75 12C15.75 12.764 15.521 13.4753 15.1286 14.068L17.8561 16.7955ZM14.0308 12.9702C14.1714 12.6765 14.25 12.3476 14.25 12C14.25 10.7574 13.2426 9.75 12 9.75C11.6523 9.75 11.3235 9.82853 11.0298 9.96914L14.0308 12.9702ZM4.46428 7.64996C4.78052 7.91748 4.82002 8.39071 4.55251 8.70695C3.74205 9.66504 3.11358 10.7809 2.71955 12.0014C3.98537 15.9182 7.66246 18.75 11.9991 18.75C12.922 18.75 13.8137 18.622 14.6581 18.3832C15.0567 18.2705 15.4712 18.5022 15.5839 18.9008C15.6966 19.2994 15.4649 19.7139 15.0663 19.8266C14.0904 20.1026 13.0613 20.25 11.9991 20.25C6.90226 20.25 2.59889 16.8612 1.21552 12.2155C1.17395 12.0759 1.17393 11.9273 1.21545 11.7877C1.66367 10.2808 2.41867 8.9069 3.40729 7.73819C3.67481 7.42195 4.14804 7.38245 4.46428 7.64996Z" fill="#091E42"/>
</svg>
