<svg width="16" height="16" viewBox="0 0 16 16" fill="none" xmlns="http://www.w3.org/2000/svg">
<g opacity="0.7" clip-path="url(#clip0_1870_1022)">
<path d="M10.6667 2C11.0031 1.9999 11.327 2.12026 11.5737 2.33695C11.8204 2.55363 11.9714 2.85064 11.9967 3.16842L12 3.26316V6.42105H13C13.2486 6.42106 13.4883 6.50879 13.6723 6.66713C13.8563 6.82546 13.9715 7.04306 13.9953 7.27747L14 7.36842V12.1053C14 12.5886 13.8051 13.0536 13.4551 13.4052C13.1052 13.7568 12.6266 13.9685 12.1173 13.9968L12 14H3.33333C2.99695 14.0001 2.67296 13.8797 2.4263 13.6631C2.17965 13.4464 2.02856 13.1494 2.00333 12.8316L2 12.7368V3.26316C1.99989 2.94448 2.12694 2.63754 2.35566 2.40386C2.58439 2.17019 2.8979 2.02706 3.23333 2.00316L3.33333 2H10.6667ZM12.6667 7.68421H12V12.7368C12.1768 12.7368 12.3464 12.6703 12.4714 12.5519C12.5964 12.4334 12.6667 12.2728 12.6667 12.1053V7.68421ZM7.33333 8.31579H5.33333C5.16341 8.31597 4.99998 8.37761 4.87642 8.48811C4.75286 8.59862 4.67851 8.74965 4.66855 8.91035C4.65859 9.07105 4.71378 9.22929 4.82284 9.35274C4.9319 9.47618 5.0866 9.55551 5.25533 9.57453L5.33333 9.57895H7.33333C7.50325 9.57877 7.66669 9.51713 7.79025 9.40662C7.9138 9.29611 7.98816 9.14508 7.99812 8.98438C8.00807 8.82368 7.95288 8.66544 7.84382 8.542C7.73476 8.41856 7.58006 8.33922 7.41133 8.32021L7.33333 8.31579ZM8.66667 5.15789H5.33333C5.15652 5.15789 4.98695 5.22444 4.86193 5.34288C4.7369 5.46132 4.66667 5.62197 4.66667 5.78947C4.66667 5.95698 4.7369 6.11762 4.86193 6.23607C4.98695 6.35451 5.15652 6.42105 5.33333 6.42105H8.66667C8.84348 6.42105 9.01305 6.35451 9.13807 6.23607C9.2631 6.11762 9.33333 5.95698 9.33333 5.78947C9.33333 5.62197 9.2631 5.46132 9.13807 5.34288C9.01305 5.22444 8.84348 5.15789 8.66667 5.15789Z" fill="#091E42"/>
</g>
<defs>
<clipPath id="clip0_1870_1022">
<rect width="16" height="16" fill="white"/>
</clipPath>
</defs>
</svg>
