<svg width="24" height="24" viewBox="0 0 24 24" fill="none" xmlns="http://www.w3.org/2000/svg">
<path fill-rule="evenodd" clip-rule="evenodd" d="M6 3.375C6 2.33947 6.83947 1.5 7.875 1.5H16.125C17.1605 1.5 18 2.33947 18 3.375V6.36564C18.4264 6.41799 18.8511 6.47583 19.274 6.53912C20.7281 6.75668 21.75 8.02163 21.75 9.45569V15.75C21.75 17.4069 20.4069 18.75 18.75 18.75H18.4804L18.6354 20.4552C18.7352 21.5533 17.8706 22.5 16.7681 22.5H7.23191C6.12935 22.5 5.26479 21.5533 5.36461 20.4552L5.51963 18.75H5.25C3.59315 18.75 2.25 17.4069 2.25 15.75V9.45569C2.25 8.02163 3.27191 6.75668 4.72596 6.53912C5.1489 6.47583 5.5736 6.41799 6 6.36564V3.375ZM7.5 6.20498C8.98199 6.06931 10.483 6 12 6C13.517 6 15.018 6.06931 16.5 6.20498V3.375C16.5 3.16789 16.3321 3 16.125 3H7.875C7.66789 3 7.5 3.16789 7.5 3.375V6.20498ZM5.656 17.25L5.89077 14.6675C5.57054 14.6205 5.30572 14.3682 5.25756 14.0315C5.19891 13.6215 5.48376 13.2415 5.8938 13.1829C6.13748 13.148 6.38181 13.1152 6.62678 13.0845C8.38712 12.8637 10.1805 12.75 12 12.75C13.8195 12.75 15.6129 12.8637 17.3732 13.0845C17.6182 13.1152 17.8625 13.148 18.1062 13.1829C18.5162 13.2415 18.8011 13.6215 18.7424 14.0315C18.6943 14.3682 18.4295 14.6205 18.1092 14.6675L18.344 17.25H18.75C19.5784 17.25 20.25 16.5784 20.25 15.75V9.45569C20.25 8.72787 19.7361 8.12495 19.0521 8.0226C18.4283 7.92927 17.8005 7.84812 17.1689 7.77942C15.4715 7.59478 13.747 7.5 12 7.5C10.253 7.5 8.52845 7.59478 6.83111 7.77942C6.19954 7.84812 5.57173 7.92927 4.94793 8.0226C4.2639 8.12495 3.75 8.72787 3.75 9.45569V15.75C3.75 16.5784 4.42157 17.25 5.25 17.25H5.656ZM16.588 14.5022C15.0819 14.3356 13.5511 14.25 12 14.25C10.4489 14.25 8.91812 14.3356 7.41198 14.5022L6.85845 20.591C6.83849 20.8107 7.0114 21 7.23191 21H16.7681C16.9886 21 17.1615 20.8107 17.1415 20.591L16.588 14.5022ZM14.25 10.5C14.25 10.0858 14.5858 9.75 15 9.75H15.0075C15.4217 9.75 15.7575 10.0858 15.7575 10.5V10.5075C15.7575 10.9217 15.4217 11.2575 15.0075 11.2575H15C14.5858 11.2575 14.25 10.9217 14.25 10.5075V10.5ZM17.25 10.5C17.25 10.0858 17.5858 9.75 18 9.75H18.0075C18.4217 9.75 18.7575 10.0858 18.7575 10.5V10.5075C18.7575 10.9217 18.4217 11.2575 18.0075 11.2575H18C17.5858 11.2575 17.25 10.9217 17.25 10.5075V10.5Z" fill="#091E42"/>
</svg>
