<svg width="16" height="16" viewBox="0 0 16 16" fill="none" xmlns="http://www.w3.org/2000/svg">
<g opacity="0.7">
<path d="M7.70133 1H7.632C7.03267 1 6.53333 1 6.13733 1.05333C5.71867 1.10933 5.34067 1.23333 5.03733 1.53667C4.73333 1.84067 4.60933 2.21867 4.55333 2.63667C4.5 3.03333 4.5 3.53333 4.5 4.132V4.184C4.80467 4.174 5.13667 4.17 5.5 4.168V4.16667C5.5 3.524 5.50133 3.092 5.54467 2.77C5.586 2.46267 5.65733 2.33067 5.74467 2.244C5.83133 2.15733 5.96267 2.086 6.27 2.044C6.592 2.00133 7.024 2 7.66667 2C8.30933 2 8.74133 2.00133 9.06333 2.04467C9.37067 2.086 9.50267 2.15733 9.58933 2.24467C9.676 2.33133 9.74733 2.46267 9.78933 2.77C9.832 3.092 9.83333 3.524 9.83333 4.16667V4.168C10.1667 4.16875 10.5001 4.17408 10.8333 4.184V4.132C10.8333 3.53333 10.8333 3.03333 10.78 2.63733C10.724 2.21867 10.6 1.84067 10.296 1.53733C9.99267 1.23333 9.61467 1.10933 9.196 1.05333C8.8 1 8.3 1 7.70133 1Z" fill="#091E42"/>
<path opacity="0.5" fill-rule="evenodd" clip-rule="evenodd" d="M1 9.5C1 6.98601 1 5.72867 1.78133 4.94801C2.562 4.16667 3.81933 4.16667 6.33333 4.16667H9C11.514 4.16667 12.7713 4.16667 13.552 4.94801C14.3333 5.72867 14.3333 6.98601 14.3333 9.5C14.3333 12.014 14.3333 13.2713 13.552 14.052C12.7713 14.8333 11.514 14.8333 9 14.8333H6.33333C3.81933 14.8333 2.562 14.8333 1.78133 14.052C1 13.2713 1 12.014 1 9.5ZM8.16667 8.5C8.16667 8.3674 8.11399 8.24022 8.02022 8.14645C7.92645 8.05268 7.79928 8 7.66667 8C7.53406 8 7.40688 8.05268 7.31311 8.14645C7.21935 8.24022 7.16667 8.3674 7.16667 8.5V9H6.66667C6.53406 9 6.40688 9.05268 6.31311 9.14645C6.21935 9.24022 6.16667 9.3674 6.16667 9.5C6.16667 9.63261 6.21935 9.75979 6.31311 9.85356C6.40688 9.94733 6.53406 10 6.66667 10H7.16667V10.5C7.16667 10.6326 7.21935 10.7598 7.31311 10.8536C7.40688 10.9473 7.53406 11 7.66667 11C7.79928 11 7.92645 10.9473 8.02022 10.8536C8.11399 10.7598 8.16667 10.6326 8.16667 10.5V10H8.66667C8.79928 10 8.92645 9.94733 9.02022 9.85356C9.11399 9.75979 9.16667 9.63261 9.16667 9.5C9.16667 9.3674 9.11399 9.24022 9.02022 9.14645C8.92645 9.05268 8.79928 9 8.66667 9H8.16667V8.5Z" fill="#091E42"/>
<path fill-rule="evenodd" clip-rule="evenodd" d="M7.66667 12.1667C8.37391 12.1667 9.05219 11.8857 9.55228 11.3856C10.0524 10.8855 10.3333 10.2072 10.3333 9.49999C10.3333 8.79275 10.0524 8.11447 9.55228 7.61438C9.05219 7.11428 8.37391 6.83333 7.66667 6.83333C6.95942 6.83333 6.28115 7.11428 5.78105 7.61438C5.28095 8.11447 5 8.79275 5 9.49999C5 10.2072 5.28095 10.8855 5.78105 11.3856C6.28115 11.8857 6.95942 12.1667 7.66667 12.1667ZM8.16667 8.49999C8.16667 8.36739 8.11399 8.24021 8.02022 8.14644C7.92645 8.05267 7.79927 7.99999 7.66667 7.99999C7.53406 7.99999 7.40688 8.05267 7.31311 8.14644C7.21935 8.24021 7.16667 8.36739 7.16667 8.49999V8.99999H6.66667C6.53406 8.99999 6.40688 9.05267 6.31311 9.14644C6.21935 9.24021 6.16667 9.36739 6.16667 9.49999C6.16667 9.6326 6.21935 9.75978 6.31311 9.85355C6.40688 9.94732 6.53406 9.99999 6.66667 9.99999H7.16667V10.5C7.16667 10.6326 7.21935 10.7598 7.31311 10.8535C7.40688 10.9473 7.53406 11 7.66667 11C7.79927 11 7.92645 10.9473 8.02022 10.8535C8.11399 10.7598 8.16667 10.6326 8.16667 10.5V9.99999H8.66667C8.79927 9.99999 8.92645 9.94732 9.02022 9.85355C9.11399 9.75978 9.16667 9.6326 9.16667 9.49999C9.16667 9.36739 9.11399 9.24021 9.02022 9.14644C8.92645 9.05267 8.79927 8.99999 8.66667 8.99999H8.16667V8.49999Z" fill="#091E42"/>
</g>
</svg>
