<svg width="24" height="24" viewBox="0 0 24 24" fill="none" xmlns="http://www.w3.org/2000/svg">
<path fill-rule="evenodd" clip-rule="evenodd" d="M12.0003 3.75C9.64439 3.75 7.32921 3.92236 5.06657 4.25505C3.87679 4.42999 3 5.48457 3 6.74064V12.7593C3 14.0154 3.87679 15.07 5.06656 15.2449C6.13567 15.4021 7.2165 15.5235 8.30779 15.6079C8.69842 15.6381 9 15.9638 9 16.3556V19.1893L11.7957 16.3936C12.2104 15.979 12.7663 15.7474 13.3426 15.7313C15.2364 15.6785 17.1021 15.5143 18.9334 15.2451C20.1232 15.0701 21 14.0155 21 12.7595V6.74056C21 5.48447 20.1232 4.42988 18.9334 4.25496C16.6709 3.92233 14.356 3.75 12.0003 3.75ZM4.84836 2.771C7.18302 2.42773 9.57113 2.25 12.0003 2.25C14.4292 2.25 16.8171 2.4277 19.1516 2.77091C21.1299 3.06177 22.5 4.79445 22.5 6.74056V12.7595C22.5 14.7056 21.1299 16.4382 19.1516 16.7291C17.262 17.0069 15.3374 17.1763 13.3844 17.2307C13.1814 17.2364 12.993 17.3177 12.8564 17.4543L8.78033 21.5303C8.56583 21.7448 8.24324 21.809 7.96299 21.6929C7.68273 21.5768 7.5 21.3033 7.5 21V17.045C6.60901 16.9634 5.72491 16.8579 4.84836 16.729C2.87004 16.4381 1.5 14.7054 1.5 12.7593V6.74064C1.5 4.79455 2.87004 3.06188 4.84836 2.771Z" fill="#091E42"/>
</svg>
