<svg width="24" height="24" viewBox="0 0 24 24" fill="none" xmlns="http://www.w3.org/2000/svg">
<path d="M6 6.87803V6C6 4.75736 7.00736 3.75 8.25 3.75H15.75C16.9926 3.75 18 4.75736 18 6V6.87803M4.5 9.87803V9C4.5 8.02034 5.12611 7.18691 6 6.87803C6.23458 6.79512 6.48702 6.75 6.75 6.75H17.25C17.513 6.75 17.7654 6.79512 18 6.87803M18 6.87803C18.8739 7.18691 19.5 8.02034 19.5 9V9.87803M4.5 9.87803C3.62611 10.1869 3 11.0203 3 12V18C3 19.2426 4.00736 20.25 5.25 20.25H18.75C19.9926 20.25 21 19.2426 21 18V12C21 11.0203 20.3739 10.1869 19.5 9.87803C19.2654 9.79512 19.013 9.75 18.75 9.75H5.25C4.98702 9.75 4.73458 9.79512 4.5 9.87803Z" stroke="#0F172A" stroke-width="1.5" stroke-linecap="round" stroke-linejoin="round"/>
</svg>
