<svg width="16" height="16" viewBox="0 0 16 16" fill="none" xmlns="http://www.w3.org/2000/svg">
<g opacity="0.7">
<path d="M6.68198 1.33333C6.37256 1.33333 6.07581 1.45625 5.85702 1.67504C5.63823 1.89384 5.51531 2.19058 5.51531 2.5C5.51531 2.80942 5.63823 3.10617 5.85702 3.32496C6.07581 3.54375 6.37256 3.66667 6.68198 3.66667H9.34864C9.65806 3.66667 9.95481 3.54375 10.1736 3.32496C10.3924 3.10617 10.5153 2.80942 10.5153 2.5C10.5153 2.19058 10.3924 1.89384 10.1736 1.67504C9.95481 1.45625 9.65806 1.33333 9.34864 1.33333H6.68198ZM2.59131 10.8033C2.01931 8.51533 1.73331 7.372 2.33331 6.60267C2.93331 5.83333 4.11331 5.83333 6.47198 5.83333H9.55864C11.9173 5.83333 13.096 5.83333 13.6966 6.60267C14.2973 7.37133 14.0113 8.516 13.4393 10.8033C13.0753 12.2587 12.894 12.986 12.3513 13.41C11.8086 13.8333 11.0586 13.8333 9.55864 13.8333H6.47198C4.97198 13.8333 4.22198 13.8333 3.67931 13.41C3.13664 12.986 2.95464 12.2587 2.59131 10.8033Z" fill="#091E42"/>
<path opacity="0.5" d="M10.4027 3.00134C10.4774 2.84518 10.5164 2.67429 10.5166 2.50116C10.5168 2.32802 10.4784 2.15703 10.404 2.00067C10.8594 2.004 11.2147 2.02467 11.5314 2.14867C11.9102 2.29685 12.2396 2.54868 12.482 2.87534C12.7267 3.20467 12.842 3.62667 13 4.208L13.0307 4.32134L13.3727 6.29667C13.1 6.10867 12.7487 5.99667 12.294 5.93001L12.054 4.53867C11.864 3.84534 11.7954 3.62734 11.6794 3.47134C11.5488 3.29541 11.3714 3.15979 11.1674 3.08C11.0207 3.02267 10.844 3.00667 10.4027 3.00134ZM5.62736 2.00067C5.55302 2.15703 5.51456 2.32802 5.51479 2.50116C5.51502 2.67429 5.55394 2.84518 5.62869 3.00134C5.18736 3.006 5.01069 3.02267 4.86402 3.08C4.66 3.15979 4.48257 3.29541 4.35202 3.47134C4.23602 3.62734 4.16736 3.84534 3.97802 4.538L3.73736 5.93067C3.28269 5.99734 2.93136 6.10867 2.65869 6.29601L3.00069 4.32134L3.03136 4.208C3.18936 3.62667 3.30469 3.20467 3.54936 2.87467C3.79193 2.5485 4.12137 2.29715 4.50002 2.14934C4.81669 2.02534 5.17202 2.004 5.62736 2.00067Z" fill="#091E42"/>
</g>
</svg>
