<svg width="24" height="24" viewBox="0 0 24 24" fill="none" xmlns="http://www.w3.org/2000/svg">
<path fill-rule="evenodd" clip-rule="evenodd" d="M9 5.25C8.58579 5.25 8.25 5.58579 8.25 6C8.25 6.41421 8.58579 6.75 9 6.75C9.41421 6.75 9.75 6.41421 9.75 6C9.75 5.58579 9.41421 5.25 9 5.25ZM6.87803 5.25C7.18691 4.3761 8.02034 3.75 9 3.75C9.97967 3.75 10.8131 4.37611 11.122 5.25L20.25 5.25C20.6642 5.25 21 5.58579 21 6C21 6.41421 20.6642 6.75 20.25 6.75H11.122C10.8131 7.62389 9.97966 8.25 9 8.25C8.02034 8.25 7.18691 7.62389 6.87803 6.75H3.75C3.33579 6.75 3 6.41421 3 6C3 5.58579 3.33579 5.25 3.75 5.25H6.87803ZM15 11.25C14.5858 11.25 14.25 11.5858 14.25 12C14.25 12.4142 14.5858 12.75 15 12.75C15.4142 12.75 15.75 12.4142 15.75 12C15.75 11.5858 15.4142 11.25 15 11.25ZM12.878 11.25C13.1869 10.3761 14.0203 9.75 15 9.75C15.9797 9.75 16.8131 10.3761 17.122 11.25L20.25 11.25C20.6642 11.25 21 11.5858 21 12C21 12.4142 20.6642 12.75 20.25 12.75L17.122 12.75C16.8131 13.6239 15.9797 14.25 15 14.25C14.0203 14.25 13.1869 13.6239 12.878 12.75H3.75C3.33579 12.75 3 12.4142 3 12C3 11.5858 3.33579 11.25 3.75 11.25H12.878ZM9 17.25C8.58579 17.25 8.25 17.5858 8.25 18C8.25 18.4142 8.58579 18.75 9 18.75C9.41421 18.75 9.75 18.4142 9.75 18C9.75 17.5858 9.41421 17.25 9 17.25ZM6.87803 17.25C7.18691 16.3761 8.02034 15.75 9 15.75C9.97966 15.75 10.8131 16.3761 11.122 17.25H20.25C20.6642 17.25 21 17.5858 21 18C21 18.4142 20.6642 18.75 20.25 18.75H11.122C10.8131 19.6239 9.97966 20.25 9 20.25C8.02034 20.25 7.18691 19.6239 6.87803 18.75L3.75 18.75C3.33579 18.75 3 18.4142 3 18C3 17.5858 3.33579 17.25 3.75 17.25L6.87803 17.25Z" fill="#091E42"/>
</svg>
