<svg width="16" height="16" viewBox="0 0 16 16" fill="none" xmlns="http://www.w3.org/2000/svg">
<path d="M8.66669 5.99999H12.3334L8.66669 2.33333V5.99999ZM4.00002 1.33333H9.33335L13.3334 5.33333V13.3333C13.3334 13.6869 13.1929 14.0261 12.9428 14.2761C12.6928 14.5262 12.3536 14.6667 12 14.6667H4.00002C3.6464 14.6667 3.30726 14.5262 3.05721 14.2761C2.80716 14.0261 2.66669 13.6869 2.66669 13.3333V2.66666C2.66669 1.92666 3.26002 1.33333 4.00002 1.33333ZM4.66669 13.3333H6.00002V9.33333H4.66669V13.3333ZM7.33335 13.3333H8.66669V7.99999H7.33335V13.3333ZM10 13.3333H11.3334V10.6667H10V13.3333Z" fill="#1E7FD6"/>
</svg>
