<svg width="16" height="16" viewBox="0 0 16 16" fill="none" xmlns="http://www.w3.org/2000/svg">
<g opacity="0.7">
<path d="M4.46665 14C4.14443 14 3.85821 13.8944 3.60798 13.6833C3.35776 13.4722 3.20509 13.2056 3.14998 12.8833L2.13332 6.78334C2.09998 6.58334 2.14732 6.40289 2.27532 6.242C2.40332 6.08111 2.57265 6.00045 2.78332 6H13.2167C13.4278 6 13.5973 6.08067 13.7253 6.242C13.8533 6.40334 13.9004 6.58378 13.8666 6.78334L12.85 12.8833C12.7944 13.2056 12.6418 13.4722 12.392 13.6833C12.1422 13.8944 11.856 14 11.5333 14H4.46665ZM6.66665 10H9.33332C9.5222 10 9.68065 9.936 9.80865 9.808C9.93665 9.68 10.0004 9.52178 9.99998 9.33334C9.99998 9.14445 9.93598 8.986 9.80798 8.858C9.67998 8.73 9.52176 8.66622 9.33332 8.66667H6.66665C6.47776 8.66667 6.31932 8.73067 6.19132 8.85867C6.06332 8.98667 5.99954 9.14489 5.99998 9.33334C5.99998 9.52222 6.06398 9.68067 6.19198 9.80867C6.31998 9.93667 6.47821 10.0004 6.66665 10ZM3.99998 5.33334C3.81109 5.33334 3.65265 5.26934 3.52465 5.14134C3.39665 5.01334 3.33287 4.85511 3.33332 4.66667C3.33332 4.47778 3.39732 4.31934 3.52532 4.19134C3.65332 4.06334 3.81154 3.99956 3.99998 4H12C12.1889 4 12.3473 4.064 12.4753 4.192C12.6033 4.32 12.6671 4.47822 12.6666 4.66667C12.6666 4.85556 12.6026 5.014 12.4746 5.142C12.3466 5.27 12.1884 5.33378 12 5.33334H3.99998ZM5.33332 3.33334C5.14443 3.33334 4.98598 3.26934 4.85798 3.14134C4.72998 3.01334 4.66621 2.85511 4.66665 2.66667C4.66665 2.47778 4.73065 2.31934 4.85865 2.19134C4.98665 2.06334 5.14487 1.99956 5.33332 2H10.6666C10.8555 2 11.014 2.064 11.142 2.192C11.27 2.32 11.3338 2.47822 11.3333 2.66667C11.3333 2.85556 11.2693 3.014 11.1413 3.142C11.0133 3.27 10.8551 3.33378 10.6666 3.33334H5.33332Z" fill="#091E42"/>
</g>
</svg>
