<svg width="16" height="16" viewBox="0 0 16 16" fill="none" xmlns="http://www.w3.org/2000/svg">
<g opacity="0.7">
<path opacity="0.5" d="M14.6253 6.668C14.4771 5.49263 13.942 4.39999 13.1043 3.56231C12.2667 2.72462 11.174 2.18951 9.99865 2.04133C9.63331 1.99533 9.33331 2.29867 9.33331 2.66667V7C9.33331 7.0884 9.36843 7.17319 9.43094 7.2357C9.49346 7.29821 9.57824 7.33333 9.66665 7.33333H14C14.368 7.33333 14.6713 7.03333 14.6253 6.668Z" fill="#155996"/>
<path d="M7.99998 3C6.87922 3 5.78363 3.33234 4.85175 3.95501C3.91987 4.57767 3.19356 5.46268 2.76466 6.49813C2.33577 7.53358 2.22355 8.67295 2.4422 9.77218C2.66085 10.8714 3.20055 11.8811 3.99304 12.6736C4.78554 13.4661 5.79524 14.0058 6.89447 14.2245C7.9937 14.4431 9.13307 14.3309 10.1685 13.902C11.204 13.4731 12.089 12.7468 12.7116 11.8149C13.3343 10.883 13.6666 9.78743 13.6666 8.66667C13.6666 8.57826 13.6315 8.49348 13.569 8.43096C13.5065 8.36845 13.4217 8.33333 13.3333 8.33333H8.66665C8.57824 8.33333 8.49346 8.29821 8.43095 8.2357C8.36843 8.17319 8.33332 8.08841 8.33332 8V3.33333C8.33332 3.24493 8.2982 3.16014 8.23568 3.09763C8.17317 3.03512 8.08839 3 7.99998 3Z" fill="#155996"/>
</g>
</svg>
