<svg width="16" height="16" viewBox="0 0 16 16" fill="none" xmlns="http://www.w3.org/2000/svg">
<g opacity="0.7">
<path fill-rule="evenodd" clip-rule="evenodd" d="M3.71429 3.5C3.71429 3.10218 3.8648 2.72064 4.1327 2.43934C4.40061 2.15804 4.76398 2 5.14286 2H10.8571C11.236 2 11.5994 2.15804 11.8673 2.43934C12.1352 2.72064 12.2857 3.10218 12.2857 3.5V12.5C12.4752 12.5 12.6568 12.579 12.7908 12.7197C12.9247 12.8603 13 13.0511 13 13.25C13 13.4489 12.9247 13.6397 12.7908 13.7803C12.6568 13.921 12.4752 14 12.2857 14H10.1429C9.95342 14 9.77174 13.921 9.63778 13.7803C9.50383 13.6397 9.42857 13.4489 9.42857 13.25V11.75C9.42857 11.5511 9.35332 11.3603 9.21936 11.2197C9.08541 11.079 8.90373 11 8.71429 11H7.28571C7.09627 11 6.91459 11.079 6.78064 11.2197C6.64668 11.3603 6.57143 11.5511 6.57143 11.75V13.25C6.57143 13.4489 6.49617 13.6397 6.36222 13.7803C6.22826 13.921 6.04658 14 5.85714 14H3.71429C3.52485 14 3.34316 13.921 3.20921 13.7803C3.07525 13.6397 3 13.4489 3 13.25C3 13.0511 3.07525 12.8603 3.20921 12.7197C3.34316 12.579 3.52485 12.5 3.71429 12.5V3.5ZM5.85714 4.25H7.28571V5.75H5.85714V4.25ZM7.28571 7.25H5.85714V8.75H7.28571V7.25ZM8.71429 4.25H10.1429V5.75H8.71429V4.25ZM10.1429 7.25H8.71429V8.75H10.1429V7.25Z" fill="#091E42"/>
</g>
</svg>
