<svg width="24" height="24" viewBox="0 0 24 24" fill="none" xmlns="http://www.w3.org/2000/svg">
<path fill-rule="evenodd" clip-rule="evenodd" d="M9.34429 3.07113C10.2236 3.02391 11.109 3 12 3C12.891 3 13.7764 3.02391 14.6557 3.07113C15.6233 3.12309 16.4854 3.65612 16.9882 4.46184L17.8094 5.77786C18.0485 6.16099 18.4544 6.42131 18.9195 6.48741C19.3049 6.54218 19.6888 6.60145 20.0713 6.66518C21.5031 6.90378 22.5 8.15785 22.5 9.57403V18C22.5 19.6569 21.1569 21 19.5 21H4.5C2.84315 21 1.5 19.6569 1.5 18V9.57402C1.5 8.15784 2.49686 6.90377 3.92872 6.66517C4.31116 6.60144 4.6951 6.54217 5.08048 6.4874C5.54556 6.42131 5.95152 6.16099 6.19061 5.77785L7.01181 4.46184C7.5146 3.65612 8.37667 3.12309 9.34429 3.07113ZM12 4.5C11.1359 4.5 10.2773 4.52319 9.42472 4.56897C8.96453 4.59368 8.53855 4.84861 8.28437 5.25594L7.46317 6.57195C6.98009 7.34608 6.17699 7.84665 5.29153 7.97248C4.91801 8.02556 4.54591 8.08301 4.17527 8.14477C3.50138 8.25706 3 8.85541 3 9.57402V18C3 18.8284 3.67157 19.5 4.5 19.5H19.5C20.3284 19.5 21 18.8284 21 18V9.57403C21 8.85542 20.4986 8.25707 19.8247 8.14478C19.4541 8.08302 19.082 8.02557 18.7085 7.97249C17.823 7.84665 17.0199 7.34609 16.5368 6.57195L15.7156 5.25594C15.4614 4.84861 15.0355 4.59368 14.5753 4.56897C13.7227 4.52319 12.8641 4.5 12 4.5ZM12 9C9.92893 9 8.25 10.6789 8.25 12.75C8.25 14.8211 9.92893 16.5 12 16.5C14.0711 16.5 15.75 14.8211 15.75 12.75C15.75 10.6789 14.0711 9 12 9ZM6.75 12.75C6.75 9.8505 9.1005 7.5 12 7.5C14.8995 7.5 17.25 9.8505 17.25 12.75C17.25 15.6495 14.8995 18 12 18C9.1005 18 6.75 15.6495 6.75 12.75ZM18 10.5C18 10.0858 18.3358 9.75 18.75 9.75H18.7575C19.1717 9.75 19.5075 10.0858 19.5075 10.5V10.5075C19.5075 10.9217 19.1717 11.2575 18.7575 11.2575H18.75C18.3358 11.2575 18 10.9217 18 10.5075V10.5Z" fill="#091E42"/>
</svg>
