<svg width="24" height="24" viewBox="0 0 24 24" fill="none" xmlns="http://www.w3.org/2000/svg">
<path fill-rule="evenodd" clip-rule="evenodd" d="M1.5 4.5C1.5 2.84315 2.84315 1.5 4.5 1.5H5.87163C6.732 1.5 7.48197 2.08556 7.69064 2.92025L8.79644 7.34343C8.97941 8.0753 8.70594 8.84555 8.10242 9.29818L6.8088 10.2684C6.67447 10.3691 6.64527 10.5167 6.683 10.6197C7.81851 13.7195 10.2805 16.1815 13.3803 17.317C13.4833 17.3547 13.6309 17.3255 13.7316 17.1912L14.7018 15.8976C15.1545 15.2941 15.9247 15.0206 16.6566 15.2036L21.0798 16.3094C21.9144 16.518 22.5 17.268 22.5 18.1284V19.5C22.5 21.1569 21.1569 22.5 19.5 22.5H17.25C8.55152 22.5 1.5 15.4485 1.5 6.75V4.5ZM4.5 3C3.67157 3 3 3.67157 3 4.5V6.75C3 14.6201 9.37994 21 17.25 21H19.5C20.3284 21 21 20.3284 21 19.5V18.1284C21 17.9563 20.8829 17.8063 20.716 17.7646L16.2928 16.6588C16.1464 16.6222 15.9923 16.6769 15.9018 16.7976L14.9316 18.0912C14.4692 18.7078 13.6427 19.0106 12.8644 18.7255C9.35027 17.4382 6.5618 14.6497 5.27453 11.1356C4.98941 10.3573 5.29225 9.53082 5.9088 9.0684L7.20242 8.09818C7.32313 8.00766 7.37782 7.85361 7.34123 7.70723L6.23543 3.28405C6.1937 3.11711 6.0437 3 5.87163 3H4.5Z" fill="#091E42"/>
</svg>
