<svg width="16" height="16" viewBox="0 0 16 16" fill="none" xmlns="http://www.w3.org/2000/svg">
<g opacity="0.7">
<path d="M5.00006 8.49999H3.00006C2.70006 8.49999 2.50006 8.69999 2.50006 8.99999V13C2.50006 13.3 2.70006 13.5 3.00006 13.5H5.00006C5.30006 13.5 5.50006 13.3 5.50006 13V8.99999C5.50006 8.69999 5.30006 8.49999 5.00006 8.49999ZM13.0001 6.49999H11.0001C10.7001 6.49999 10.5001 6.69999 10.5001 6.99999V13C10.5001 13.3 10.7001 13.5 11.0001 13.5H13.0001C13.3001 13.5 13.5001 13.3 13.5001 13V6.99999C13.5001 6.69999 13.3001 6.49999 13.0001 6.49999ZM9.00006 2.49999H7.00006C6.70006 2.49999 6.50006 2.69999 6.50006 2.99999V13C6.50006 13.3 6.70006 13.5 7.00006 13.5H9.00006C9.30006 13.5 9.50006 13.3 9.50006 13V2.99999C9.50006 2.69999 9.30006 2.49999 9.00006 2.49999Z" fill="#155996"/>
</g>
</svg>
