<svg width="16" height="16" viewBox="0 0 16 16" fill="none" xmlns="http://www.w3.org/2000/svg">
<g opacity="0.7">
<path d="M12.6667 12.2V2.6C12.6667 2.44087 12.5965 2.28826 12.4714 2.17574C12.3464 2.06321 12.1769 2 12 2H4.00004C3.82323 2 3.65366 2.06321 3.52864 2.17574C3.40361 2.28826 3.33337 2.44087 3.33337 2.6V12.2" fill="#091E42"/>
<path d="M12.6667 12.2V2.6C12.6667 2.44087 12.5965 2.28826 12.4714 2.17574C12.3464 2.06321 12.1769 2 12 2H4.00004C3.82323 2 3.65366 2.06321 3.52864 2.17574C3.40361 2.28826 3.33337 2.44087 3.33337 2.6V12.2" stroke="#091E42" stroke-linecap="round" stroke-linejoin="round"/>
<path d="M10.6667 10.4H5.33337C4.2288 10.4 3.33337 11.2059 3.33337 12.2C3.33337 13.1941 4.2288 14 5.33337 14H10.6667C11.7713 14 12.6667 13.1941 12.6667 12.2C12.6667 11.2059 11.7713 10.4 10.6667 10.4Z" fill="#091E42" stroke="#091E42" stroke-linecap="round" stroke-linejoin="round"/>
<path d="M10.2857 10H5.71429C4.76751 10 4 10.6716 4 11.5C4 12.3284 4.76751 13 5.71429 13H10.2857C11.2325 13 12 12.3284 12 11.5C12 10.6716 11.2325 10 10.2857 10Z" stroke="white" stroke-linecap="round" stroke-linejoin="round"/>
<path d="M6.5 5.45455L8 4L9.5 5.45455L11 4L9.875 8H6.125L5 4L6.5 5.45455Z" fill="white" stroke="white" stroke-linejoin="round"/>
<path d="M10.5 12C10.7761 12 11 11.7761 11 11.5C11 11.2239 10.7761 11 10.5 11C10.2239 11 10 11.2239 10 11.5C10 11.7761 10.2239 12 10.5 12Z" fill="white"/>
</g>
</svg>
