<svg width="16" height="16" viewBox="0 0 16 16" fill="none" xmlns="http://www.w3.org/2000/svg">
<g clip-path="url(#clip0_2712_5596)">
<g opacity="0.7">
<g filter="url(#filter0_di_2712_5596)">
<path d="M8.99537 1.57072C9.44148 1.14604 10.154 1.65786 10.0559 2.26604C9.95168 2.91198 9.93864 3.57977 10.1702 4.04631C10.7742 5.26305 12.8977 6.78336 12.8977 9.21623C12.8977 12.5615 10.7618 14.4106 7.89771 14.3862C2.82333 14.3428 1.27972 8.47015 5.23755 4.89104C5.70607 4.46768 6.28498 5.06086 6.20923 5.68791C6.16448 6.05766 6.2734 6.32756 6.6858 6.32756C7.99983 6.3273 7.19336 4.50197 8.2024 2.5258C8.35084 2.23514 8.65346 1.89645 8.99537 1.57072ZM9.4192 6.82658C9.16829 6.68147 8.84796 6.7677 8.70337 7.01897L6.12427 11.5014C5.97966 11.7528 6.06578 12.0747 6.31666 12.2201C6.56763 12.3656 6.88881 12.2802 7.03345 12.0287L9.61255 7.54533C9.7569 7.29397 9.67004 6.97193 9.4192 6.82658ZM10.3479 9.79338C9.84475 9.50184 9.20111 9.67437 8.91041 10.1791C8.63807 10.6525 8.77208 11.2497 9.20435 11.5629L9.29517 11.6225C9.79842 11.9138 10.4422 11.7398 10.7327 11.2348C11.0046 10.7614 10.87 10.165 10.4377 9.85197L10.3479 9.79338ZM9.59205 10.5746C9.66634 10.446 9.82884 10.4036 9.95435 10.476C10.0796 10.5489 10.1249 10.7113 10.051 10.8403C9.97681 10.9692 9.81433 11.0113 9.68873 10.9389C9.56314 10.8661 9.51803 10.7037 9.59205 10.5746ZM6.47877 7.4633C5.97566 7.17216 5.33186 7.34538 5.04127 7.85002C4.76918 8.32342 4.90389 8.92075 5.33619 9.23381L5.42701 9.29338C5.93021 9.58444 6.57406 9.41056 6.86451 8.90568C7.13639 8.43243 7.00159 7.83595 6.56959 7.52287L6.47877 7.4633ZM5.72388 8.24455C5.79837 8.116 5.96072 8.0742 6.08619 8.1469C6.2114 8.21974 6.25565 8.38128 6.18189 8.51018C6.10768 8.63917 5.94523 8.6823 5.81959 8.60979C5.69405 8.53689 5.64964 8.37361 5.72388 8.24455Z" fill="#091E42"/>
</g>
</g>
</g>
<defs>
<filter id="filter0_di_2712_5596" x="-0.0852795" y="-1.6708" width="16.0684" height="19.1426" filterUnits="userSpaceOnUse" color-interpolation-filters="sRGB">
<feFlood flood-opacity="0" result="BackgroundImageFix"/>
<feColorMatrix in="SourceAlpha" type="matrix" values="0 0 0 0 0 0 0 0 0 0 0 0 0 0 0 0 0 0 127 0" result="hardAlpha"/>
<feOffset/>
<feGaussianBlur stdDeviation="1.5427"/>
<feComposite in2="hardAlpha" operator="out"/>
<feColorMatrix type="matrix" values="0 0 0 0 0.690196 0 0 0 0 0.690196 0 0 0 0 0.690196 0 0 0 0.1 0"/>
<feBlend mode="normal" in2="BackgroundImageFix" result="effect1_dropShadow_2712_5596"/>
<feBlend mode="normal" in="SourceGraphic" in2="effect1_dropShadow_2712_5596" result="shape"/>
<feColorMatrix in="SourceAlpha" type="matrix" values="0 0 0 0 0 0 0 0 0 0 0 0 0 0 0 0 0 0 127 0" result="hardAlpha"/>
<feOffset/>
<feGaussianBlur stdDeviation="1.38843"/>
<feComposite in2="hardAlpha" operator="arithmetic" k2="-1" k3="1"/>
<feColorMatrix type="matrix" values="0 0 0 0 0.692064 0 0 0 0 0.692064 0 0 0 0 0.692064 0 0 0 0.15 0"/>
<feBlend mode="normal" in2="shape" result="effect2_innerShadow_2712_5596"/>
</filter>
<clipPath id="clip0_2712_5596">
<rect width="16" height="16" rx="3.04762" fill="white"/>
</clipPath>
</defs>
</svg>
