<svg width="16" height="16" viewBox="0 0 16 16" fill="none" xmlns="http://www.w3.org/2000/svg">
<path opacity="0.5" fill-rule="evenodd" clip-rule="evenodd" d="M1.5 8C1.5 4.41015 4.41015 1.5 8 1.5C11.5899 1.5 14.5 4.41015 14.5 8C14.5 11.5899 11.5899 14.5 8 14.5C4.41015 14.5 1.5 11.5899 1.5 8Z" fill="#1E7FD6"/>
<path d="M8.78763 5.38885C8.1951 4.87038 7.21025 4.87038 6.61771 5.38885C6.40989 5.57069 6.09709 5.56896 5.91217 5.34182C5.72725 5.11467 5.782 4.79142 5.95921 4.63627C6.92877 3.78791 8.47658 3.78791 9.44614 4.63627C10.4548 5.5189 10.4548 6.9811 9.44614 7.86372C9.27503 8.01344 9.08658 8.13608 8.88789 8.23224C8.43704 8.45043 8.20267 8.74812 8.20267 9V9.5C8.20267 9.77614 7.97881 10 7.70267 10C7.42653 10 7.20267 9.77614 7.20267 9.5V9C7.20267 8.14731 7.90886 7.5951 8.45226 7.33211C8.57402 7.27318 8.68685 7.19933 8.78763 7.11115C9.34102 6.62694 9.34102 5.87306 8.78763 5.38885Z" fill="#1E7FD6"/>
<path d="M7.70252 12C7.97866 12 8.20252 11.7761 8.20252 11.5C8.20252 11.2239 7.97866 11 7.70252 11C7.42638 11 7.20252 11.2239 7.20252 11.5C7.20252 11.7761 7.42638 12 7.70252 12Z" fill="#1E7FD6"/>
</svg>
