<svg width="24" height="24" viewBox="0 0 24 24" fill="none" xmlns="http://www.w3.org/2000/svg">
<path fill-rule="evenodd" clip-rule="evenodd" d="M1.5 4.875C1.5 3.83947 2.33947 3 3.375 3H20.625C21.6605 3 22.5 3.83947 22.5 4.875V6.375C22.5 7.29657 21.8351 8.06285 20.9589 8.22035L20.3733 18.1762C20.28 19.7619 18.9669 21 17.3785 21H6.62154C5.03311 21 3.71999 19.7619 3.62671 18.1762L3.04108 8.22035C2.16485 8.06285 1.5 7.29657 1.5 6.375V4.875ZM3.75659 6.75C3.75266 6.74997 3.74873 6.74997 3.74479 6.75H3.375C3.16789 6.75 3 6.58211 3 6.375V4.875C3 4.66789 3.16789 4.5 3.375 4.5H20.625C20.8321 4.5 21 4.66789 21 4.875V6.375C21 6.58211 20.8321 6.75 20.625 6.75H20.2552C20.2513 6.74997 20.2473 6.74997 20.2434 6.75H3.75659ZM4.54541 8.25L5.12412 18.0881C5.17076 18.8809 5.82732 19.5 6.62154 19.5H17.3785C18.1727 19.5 18.8292 18.8809 18.8759 18.0881L19.4546 8.25H4.54541ZM9.24976 11.25C9.24976 10.8358 9.58554 10.5 9.99976 10.5H13.9998C14.414 10.5 14.7498 10.8358 14.7498 11.25C14.7498 11.6642 14.414 12 13.9998 12H9.99976C9.58554 12 9.24976 11.6642 9.24976 11.25Z" fill="#091E42"/>
</svg>
