<svg width="24" height="24" viewBox="0 0 24 24" fill="none" xmlns="http://www.w3.org/2000/svg">
<path fill-rule="evenodd" clip-rule="evenodd" d="M9.96967 0.96967C10.2626 0.676777 10.7374 0.676777 11.0303 0.96967L14.0303 3.96967C14.3232 4.26256 14.3232 4.73744 14.0303 5.03033C13.7374 5.32322 13.2626 5.32322 12.9697 5.03033L11.25 3.31066L11.25 12.75C11.25 13.1642 10.9142 13.5 10.5 13.5C10.0858 13.5 9.75 13.1642 9.75 12.75L9.75 3.31066L8.03033 5.03033C7.73744 5.32322 7.26256 5.32322 6.96967 5.03033C6.67678 4.73744 6.67678 4.26256 6.96967 3.96967L9.96967 0.96967ZM6.75 8.25C5.92157 8.25 5.25 8.92157 5.25 9.75V17.25C5.25 18.0784 5.92157 18.75 6.75 18.75H14.25C15.0784 18.75 15.75 18.0784 15.75 17.25V9.75C15.75 8.92157 15.0784 8.25 14.25 8.25H13.5C13.0858 8.25 12.75 7.91421 12.75 7.5C12.75 7.08579 13.0858 6.75 13.5 6.75H14.25C15.9069 6.75 17.25 8.09315 17.25 9.75C18.9069 9.75 20.25 11.0931 20.25 12.75V20.25C20.25 21.9069 18.9069 23.25 17.25 23.25H9.75C8.09315 23.25 6.75 21.9069 6.75 20.25C5.09315 20.25 3.75 18.9069 3.75 17.25V9.75C3.75 8.09315 5.09315 6.75 6.75 6.75H7.5C7.91421 6.75 8.25 7.08579 8.25 7.5C8.25 7.91421 7.91421 8.25 7.5 8.25H6.75ZM8.25 20.25C8.25 21.0784 8.92157 21.75 9.75 21.75H17.25C18.0784 21.75 18.75 21.0784 18.75 20.25V12.75C18.75 11.9216 18.0784 11.25 17.25 11.25V17.25C17.25 18.9069 15.9069 20.25 14.25 20.25H8.25Z" fill="#091E42"/>
</svg>
