<svg width="24" height="24" viewBox="0 0 24 24" fill="none" xmlns="http://www.w3.org/2000/svg">
<path fill-rule="evenodd" clip-rule="evenodd" d="M12 3C10.137 3 8.29938 3.10779 6.49314 3.31741C5.78933 3.39909 5.25 4.01078 5.25 4.75699V20.6422L7.97146 19.5536C8.15027 19.4821 8.34973 19.4821 8.52854 19.5536L12 20.9422L15.4715 19.5536C15.6503 19.4821 15.8497 19.4821 16.0285 19.5536L18.75 20.6422V4.75699C18.75 4.01078 18.2107 3.39909 17.5069 3.31741C15.7006 3.10779 13.8631 3 12 3ZM6.32022 1.82741C8.18374 1.61114 10.079 1.5 12 1.5C13.921 1.5 15.8163 1.61114 17.6798 1.82741C19.1772 2.00119 20.25 3.28722 20.25 4.75699V21.75C20.25 21.9989 20.1266 22.2315 19.9205 22.371C19.7144 22.5106 19.4525 22.5388 19.2215 22.4464L15.75 21.0578L12.2785 22.4464C12.0997 22.5179 11.9003 22.5179 11.7215 22.4464L8.25 21.0578L4.77854 22.4464C4.54747 22.5388 4.28561 22.5106 4.07953 22.371C3.87345 22.2315 3.75 21.9989 3.75 21.75V4.75699C3.75 3.28722 4.82283 2.00119 6.32022 1.82741ZM14.4697 7.71967C14.7626 7.42678 15.2374 7.42678 15.5303 7.71967C15.8232 8.01256 15.8232 8.48744 15.5303 8.78033L9.53033 14.7803C9.23744 15.0732 8.76256 15.0732 8.46967 14.7803C8.17678 14.4874 8.17678 14.0126 8.46967 13.7197L14.4697 7.71967ZM8.625 9C8.625 8.37868 9.12868 7.875 9.75 7.875C10.3713 7.875 10.875 8.37868 10.875 9C10.875 9.62132 10.3713 10.125 9.75 10.125C9.12868 10.125 8.625 9.62132 8.625 9ZM13.125 13.5C13.125 12.8787 13.6287 12.375 14.25 12.375C14.8713 12.375 15.375 12.8787 15.375 13.5C15.375 14.1213 14.8713 14.625 14.25 14.625C13.6287 14.625 13.125 14.1213 13.125 13.5Z" fill="#091E42"/>
</svg>
