<svg width="24" height="24" viewBox="0 0 24 24" fill="none" xmlns="http://www.w3.org/2000/svg">
<path fill-rule="evenodd" clip-rule="evenodd" d="M12 3C10.3431 3 8.99996 4.34315 8.99996 6C8.99996 7.65685 10.3431 9 12 9C13.6568 9 15 7.65685 15 6C15 4.34315 13.6568 3 12 3ZM7.49996 6C7.49996 3.51472 9.51468 1.5 12 1.5C14.4852 1.5 16.5 3.51472 16.5 6C16.5 8.48528 14.4852 10.5 12 10.5C9.51468 10.5 7.49996 8.48528 7.49996 6ZM5.27706 19.6409C7.34228 20.5158 9.61386 21 12.0003 21C14.3865 21 16.6578 20.5159 18.7229 19.6412C18.4152 16.1987 15.5227 13.5 12 13.5C8.47734 13.5 5.58484 16.1985 5.27706 19.6409ZM3.75121 20.1053C3.82855 15.6156 7.49195 12 12 12C16.5081 12 20.1716 15.6157 20.2487 20.1056C20.2538 20.4034 20.0823 20.676 19.8116 20.8002C17.4327 21.8918 14.7865 22.5 12.0003 22.5C9.21382 22.5 6.5674 21.8917 4.18829 20.7999C3.91762 20.6757 3.74608 20.4031 3.75121 20.1053Z" fill="#091E42"/>
</svg>
