<svg width="24" height="24" viewBox="0 0 24 24" fill="none" xmlns="http://www.w3.org/2000/svg">
<path fill-rule="evenodd" clip-rule="evenodd" d="M6.75 2.25C7.16421 2.25 7.5 2.58579 7.5 3V4.5H16.5V3C16.5 2.58579 16.8358 2.25 17.25 2.25C17.6642 2.25 18 2.58579 18 3V4.5H18.75C20.4069 4.5 21.75 5.84315 21.75 7.5V18.75C21.75 20.4069 20.4069 21.75 18.75 21.75H5.25C3.59315 21.75 2.25 20.4069 2.25 18.75V7.5C2.25 5.84315 3.59315 4.5 5.25 4.5H6V3C6 2.58579 6.33579 2.25 6.75 2.25ZM5.25 6C4.42157 6 3.75 6.67157 3.75 7.5V8.65135C4.19126 8.39609 4.70357 8.25 5.25 8.25H18.75C19.2964 8.25 19.8087 8.39609 20.25 8.65135V7.5C20.25 6.67157 19.5784 6 18.75 6H5.25ZM20.25 11.25C20.25 10.4216 19.5784 9.75 18.75 9.75H5.25C4.42157 9.75 3.75 10.4216 3.75 11.25V18.75C3.75 19.5784 4.42157 20.25 5.25 20.25H18.75C19.5784 20.25 20.25 19.5784 20.25 18.75V11.25ZM11.25 12.75C11.25 12.3358 11.5858 12 12 12H12.0075C12.4217 12 12.7575 12.3358 12.7575 12.75V12.7575C12.7575 13.1717 12.4217 13.5075 12.0075 13.5075H12C11.5858 13.5075 11.25 13.1717 11.25 12.7575V12.75ZM13.5 12.75C13.5 12.3358 13.8358 12 14.25 12H14.2575C14.6717 12 15.0075 12.3358 15.0075 12.75V12.7575C15.0075 13.1717 14.6717 13.5075 14.2575 13.5075H14.25C13.8358 13.5075 13.5 13.1717 13.5 12.7575V12.75ZM15.75 12.75C15.75 12.3358 16.0858 12 16.5 12H16.5075C16.9217 12 17.2575 12.3358 17.2575 12.75V12.7575C17.2575 13.1717 16.9217 13.5075 16.5075 13.5075H16.5C16.0858 13.5075 15.75 13.1717 15.75 12.7575V12.75ZM6.75 15C6.75 14.5858 7.08579 14.25 7.5 14.25H7.5075C7.92171 14.25 8.2575 14.5858 8.2575 15V15.0075C8.2575 15.4217 7.92171 15.7575 7.5075 15.7575H7.5C7.08579 15.7575 6.75 15.4217 6.75 15.0075V15ZM9 15C9 14.5858 9.33579 14.25 9.75 14.25H9.7575C10.1717 14.25 10.5075 14.5858 10.5075 15V15.0075C10.5075 15.4217 10.1717 15.7575 9.7575 15.7575H9.75C9.33579 15.7575 9 15.4217 9 15.0075V15ZM11.25 15C11.25 14.5858 11.5858 14.25 12 14.25H12.0075C12.4217 14.25 12.7575 14.5858 12.7575 15V15.0075C12.7575 15.4217 12.4217 15.7575 12.0075 15.7575H12C11.5858 15.7575 11.25 15.4217 11.25 15.0075V15ZM13.5 15C13.5 14.5858 13.8358 14.25 14.25 14.25H14.2575C14.6717 14.25 15.0075 14.5858 15.0075 15V15.0075C15.0075 15.4217 14.6717 15.7575 14.2575 15.7575H14.25C13.8358 15.7575 13.5 15.4217 13.5 15.0075V15ZM15.75 15C15.75 14.5858 16.0858 14.25 16.5 14.25H16.5075C16.9217 14.25 17.2575 14.5858 17.2575 15V15.0075C17.2575 15.4217 16.9217 15.7575 16.5075 15.7575H16.5C16.0858 15.7575 15.75 15.4217 15.75 15.0075V15ZM6.75 17.25C6.75 16.8358 7.08579 16.5 7.5 16.5H7.5075C7.92171 16.5 8.2575 16.8358 8.2575 17.25V17.2575C8.2575 17.6717 7.92171 18.0075 7.5075 18.0075H7.5C7.08579 18.0075 6.75 17.6717 6.75 17.2575V17.25ZM9 17.25C9 16.8358 9.33579 16.5 9.75 16.5H9.7575C10.1717 16.5 10.5075 16.8358 10.5075 17.25V17.2575C10.5075 17.6717 10.1717 18.0075 9.7575 18.0075H9.75C9.33579 18.0075 9 17.6717 9 17.2575V17.25ZM11.25 17.25C11.25 16.8358 11.5858 16.5 12 16.5H12.0075C12.4217 16.5 12.7575 16.8358 12.7575 17.25V17.2575C12.7575 17.6717 12.4217 18.0075 12.0075 18.0075H12C11.5858 18.0075 11.25 17.6717 11.25 17.2575V17.25ZM13.5 17.25C13.5 16.8358 13.8358 16.5 14.25 16.5H14.2575C14.6717 16.5 15.0075 16.8358 15.0075 17.25V17.2575C15.0075 17.6717 14.6717 18.0075 14.2575 18.0075H14.25C13.8358 18.0075 13.5 17.6717 13.5 17.2575V17.25Z" fill="#091E42"/>
</svg>
