<svg width="24" height="24" viewBox="0 0 24 24" fill="none" xmlns="http://www.w3.org/2000/svg">
<path d="M10.5 8C10.106 8 9.71593 8.0776 9.35195 8.22836C8.98797 8.37913 8.65726 8.6001 8.37868 8.87868C8.1001 9.15726 7.87913 9.48797 7.72836 9.85195C7.5776 10.2159 7.5 10.606 7.5 11C7.5 11.394 7.5776 11.7841 7.72836 12.1481C7.87913 12.512 8.1001 12.8427 8.37868 13.1213C8.65726 13.3999 8.98797 13.6209 9.35195 13.7716C9.71593 13.9224 10.106 14 10.5 14C11.2956 14 12.0587 13.6839 12.6213 13.1213C13.1839 12.5587 13.5 11.7956 13.5 11C13.5 10.2044 13.1839 9.44129 12.6213 8.87868C12.0587 8.31607 11.2956 8 10.5 8ZM9 11C9 10.6022 9.15804 10.2206 9.43934 9.93934C9.72064 9.65804 10.1022 9.5 10.5 9.5C10.8978 9.5 11.2794 9.65804 11.5607 9.93934C11.842 10.2206 12 10.6022 12 11C12 11.3978 11.842 11.7794 11.5607 12.0607C11.2794 12.342 10.8978 12.5 10.5 12.5C10.1022 12.5 9.72064 12.342 9.43934 12.0607C9.15804 11.7794 9 11.3978 9 11ZM2 7.25C2 6.65326 2.23705 6.08097 2.65901 5.65901C3.08097 5.23705 3.65326 5 4.25 5H16.75C17.0455 5 17.3381 5.0582 17.611 5.17127C17.884 5.28434 18.1321 5.45008 18.341 5.65901C18.5499 5.86794 18.7157 6.11598 18.8287 6.38896C18.9418 6.66194 19 6.95453 19 7.25V14.75C19 15.0455 18.9418 15.3381 18.8287 15.611C18.7157 15.884 18.5499 16.1321 18.341 16.341C18.1321 16.5499 17.884 16.7157 17.611 16.8287C17.3381 16.9418 17.0455 17 16.75 17H4.25C3.65326 17 3.08097 16.7629 2.65901 16.341C2.23705 15.919 2 15.3467 2 14.75V7.25ZM4.25 6.5C4.05109 6.5 3.86032 6.57902 3.71967 6.71967C3.57902 6.86032 3.5 7.05109 3.5 7.25V8H4.25C4.44891 8 4.63968 7.92098 4.78033 7.78033C4.92098 7.63968 5 7.44891 5 7.25V6.5H4.25ZM3.5 12.5H4.25C4.84674 12.5 5.41903 12.7371 5.84099 13.159C6.26295 13.581 6.5 14.1533 6.5 14.75V15.5H14.5V14.75C14.5 14.1533 14.7371 13.581 15.159 13.159C15.581 12.7371 16.1533 12.5 16.75 12.5H17.5V9.5H16.75C16.1533 9.5 15.581 9.26295 15.159 8.84099C14.7371 8.41903 14.5 7.84674 14.5 7.25V6.5H6.5V7.25C6.5 7.54547 6.4418 7.83805 6.32873 8.11104C6.21566 8.38402 6.04992 8.63206 5.84099 8.84099C5.63206 9.04992 5.38402 9.21566 5.11104 9.32873C4.83806 9.4418 4.54547 9.5 4.25 9.5H3.5V12.5ZM17.5 8V7.25C17.5 7.05109 17.421 6.86032 17.2803 6.71967C17.1397 6.57902 16.9489 6.5 16.75 6.5H16V7.25C16 7.664 16.336 8 16.75 8H17.5ZM17.5 14H16.75C16.5511 14 16.3603 14.079 16.2197 14.2197C16.079 14.3603 16 14.5511 16 14.75V15.5H16.75C16.9489 15.5 17.1397 15.421 17.2803 15.2803C17.421 15.1397 17.5 14.9489 17.5 14.75V14ZM3.5 14.75C3.5 15.164 3.836 15.5 4.25 15.5H5V14.75C5 14.5511 4.92098 14.3603 4.78033 14.2197C4.63968 14.079 4.44891 14 4.25 14H3.5V14.75ZM4.401 18.5C4.66431 18.9563 5.04315 19.3351 5.4994 19.5984C5.95565 19.8618 6.47321 20.0003 7 20H17.25C17.8738 20 18.4915 19.8771 19.0677 19.6384C19.644 19.3997 20.1677 19.0498 20.6088 18.6088C21.0498 18.1677 21.3997 17.644 21.6384 17.0677C21.8771 16.4915 22 15.8738 22 15.25V10C22.0002 9.47323 21.8616 8.95571 21.5983 8.49948C21.335 8.04324 20.9562 7.66438 20.5 7.401V15.25C20.5 16.112 20.1576 16.9386 19.5481 17.5481C18.9386 18.1576 18.112 18.5 17.25 18.5H4.401Z" fill="#091E42"/>
</svg>
