<svg width="16" height="16" viewBox="0 0 16 16" fill="none" xmlns="http://www.w3.org/2000/svg">
<g opacity="0.5">
<path opacity="0.5" fill-rule="evenodd" clip-rule="evenodd" d="M4.58938 1.8916C5.70838 1.76174 6.84646 1.695 7.99995 1.695C9.15344 1.695 10.2915 1.76174 11.4105 1.8916C12.3097 1.99595 12.9539 2.76818 12.9539 3.65074V13.8546C12.9539 14.0041 12.8797 14.1438 12.756 14.2276C12.6323 14.3113 12.475 14.3283 12.3363 14.2728L10.2517 13.439L8.16721 14.2728C8.05984 14.3157 7.94006 14.3157 7.83269 14.2728L5.74816 13.439L3.66364 14.2728C3.52489 14.3283 3.36764 14.3113 3.24389 14.2276C3.12015 14.1438 3.04602 14.0041 3.04602 13.8546V3.65074C3.04602 2.76818 3.69023 1.99595 4.58938 1.8916Z" fill="#091E42"/>
<path d="M9.97724 4.57313C10.2117 4.33863 10.5919 4.33863 10.8264 4.57313C11.0609 4.80763 11.0609 5.18783 10.8264 5.42233L6.02264 10.2261C5.78813 10.4606 5.40793 10.4606 5.17343 10.2261C4.93893 9.99164 4.93893 9.61144 5.17343 9.37694L9.97724 4.57313Z" fill="#091E42"/>
<path d="M5.2978 5.59821C5.2978 5.10076 5.70106 4.69749 6.19851 4.69749C6.69596 4.69749 7.09923 5.10076 7.09923 5.59821C7.09923 6.09566 6.69596 6.49892 6.19851 6.49892C5.70106 6.49892 5.2978 6.09566 5.2978 5.59821Z" fill="#091E42"/>
<path d="M8.90065 9.20106C8.90065 8.70361 9.30392 8.30035 9.80137 8.30035C10.2988 8.30035 10.7021 8.70361 10.7021 9.20106C10.7021 9.69851 10.2988 10.1018 9.80137 10.1018C9.30392 10.1018 8.90065 9.69851 8.90065 9.20106Z" fill="#091E42"/>
</g>
</svg>
