<svg width="24" height="24" viewBox="0 0 24 24" fill="none" xmlns="http://www.w3.org/2000/svg">
<path fill-rule="evenodd" clip-rule="evenodd" d="M18.75 3C17.9216 3 17.25 3.67157 17.25 4.5C17.25 4.76571 17.3184 5.01317 17.4381 5.22807C17.6953 5.69014 18.187 6 18.75 6C19.5784 6 20.25 5.32843 20.25 4.5C20.25 3.67157 19.5784 3 18.75 3ZM15.75 4.5C15.75 2.84315 17.0931 1.5 18.75 1.5C20.4069 1.5 21.75 2.84315 21.75 4.5C21.75 6.15685 20.4069 7.5 18.75 7.5C17.8933 7.5 17.1212 7.14074 16.5751 6.56624L8.15392 11.2447C8.21665 11.4863 8.25 11.7395 8.25 12C8.25 12.2605 8.21665 12.5137 8.15392 12.7553L16.5751 17.4338C17.1212 16.8593 17.8933 16.5 18.75 16.5C20.4069 16.5 21.75 17.8431 21.75 19.5C21.75 21.1569 20.4069 22.5 18.75 22.5C17.0931 22.5 15.75 21.1569 15.75 19.5C15.75 19.2395 15.7833 18.9863 15.8461 18.7447L7.42488 14.0662C6.87885 14.6407 6.10667 15 5.25 15C3.59315 15 2.25 13.6569 2.25 12C2.25 10.3431 3.59315 9 5.25 9C6.10667 9 6.87885 9.35926 7.42488 9.93377L15.8461 5.25532C15.7833 5.01367 15.75 4.76045 15.75 4.5ZM5.25 10.5C4.42157 10.5 3.75 11.1716 3.75 12C3.75 12.8284 4.42157 13.5 5.25 13.5C5.81301 13.5 6.30467 13.1901 6.56192 12.7281C6.68157 12.5132 6.75 12.2657 6.75 12C6.75 11.7343 6.68157 11.4868 6.56192 11.2719C6.30467 10.8099 5.81301 10.5 5.25 10.5ZM18.75 18C18.187 18 17.6953 18.3099 17.4381 18.7719C17.3184 18.9868 17.25 19.2343 17.25 19.5C17.25 20.3284 17.9216 21 18.75 21C19.5784 21 20.25 20.3284 20.25 19.5C20.25 18.6716 19.5784 18 18.75 18Z" fill="#091E42"/>
</svg>
