<svg width="24" height="24" viewBox="0 0 24 24" fill="none" xmlns="http://www.w3.org/2000/svg">
<path fill-rule="evenodd" clip-rule="evenodd" d="M12 3C10.137 3 8.29938 3.10779 6.49314 3.31741C5.78933 3.39909 5.25 4.01078 5.25 4.75699V20.6422L7.97146 19.5536C8.15027 19.4821 8.34973 19.4821 8.52854 19.5536L12 20.9422L15.4715 19.5536C15.6503 19.4821 15.8497 19.4821 16.0285 19.5536L18.75 20.6422V4.75699C18.75 4.01078 18.2107 3.39909 17.5069 3.31741C15.7006 3.10779 13.8631 3 12 3ZM6.32022 1.82741C8.18374 1.61114 10.079 1.5 12 1.5C13.921 1.5 15.8163 1.61114 17.6798 1.82741C19.1772 2.00119 20.25 3.28722 20.25 4.75699V21.75C20.25 21.9989 20.1266 22.2315 19.9205 22.371C19.7144 22.5106 19.4525 22.5388 19.2215 22.4464L15.75 21.0578L12.2785 22.4464C12.0997 22.5179 11.9003 22.5179 11.7215 22.4464L8.25 21.0578L4.77854 22.4464C4.54747 22.5388 4.28561 22.5106 4.07953 22.371C3.87345 22.2315 3.75 21.9989 3.75 21.75V4.75699C3.75 3.28722 4.82283 2.00119 6.32022 1.82741ZM11.0303 6.96967C11.3232 7.26256 11.3232 7.73744 11.0303 8.03033L10.0607 9H13.125C14.989 9 16.5 10.511 16.5 12.375C16.5 14.239 14.989 15.75 13.125 15.75H12C11.5858 15.75 11.25 15.4142 11.25 15C11.25 14.5858 11.5858 14.25 12 14.25H13.125C14.1605 14.25 15 13.4105 15 12.375C15 11.3395 14.1605 10.5 13.125 10.5H10.0607L11.0303 11.4697C11.3232 11.7626 11.3232 12.2374 11.0303 12.5303C10.7374 12.8232 10.2626 12.8232 9.96967 12.5303L7.71967 10.2803C7.42678 9.98744 7.42678 9.51256 7.71967 9.21967L9.96967 6.96967C10.2626 6.67678 10.7374 6.67678 11.0303 6.96967Z" fill="#091E42"/>
</svg>
