<svg width="24" height="24" viewBox="0 0 24 24" fill="none" xmlns="http://www.w3.org/2000/svg">
<path d="M7 2C6.33696 2 5.70107 2.26339 5.23223 2.73223C4.76339 3.20107 4.5 3.83696 4.5 4.5V19.5C4.5 20.163 4.76339 20.7989 5.23223 21.2678C5.70107 21.7366 6.33696 22 7 22H17C17.663 22 18.2989 21.7366 18.7678 21.2678C19.2366 20.7989 19.5 20.163 19.5 19.5V4.5C19.5 3.83696 19.2366 3.20107 18.7678 2.73223C18.2989 2.26339 17.663 2 17 2H7ZM7 3.25H17C17.3315 3.25 17.6495 3.3817 17.8839 3.61612C18.1183 3.85054 18.25 4.16848 18.25 4.5V19.5C18.25 19.8315 18.1183 20.1495 17.8839 20.3839C17.6495 20.6183 17.3315 20.75 17 20.75H7C6.66848 20.75 6.35054 20.6183 6.11612 20.3839C5.8817 20.1495 5.75 19.8315 5.75 19.5V4.5C5.75 4.16848 5.8817 3.85054 6.11612 3.61612C6.35054 3.3817 6.66848 3.25 7 3.25Z" fill="#091E42"/>
<path d="M7.75375 17.1088C7.51012 17.0113 7.31383 16.8231 7.20625 16.5838C6.9625 16.0988 7.04375 15.6138 7.30625 15.2063C7.55375 14.8225 7.96375 14.4963 8.4275 14.2225C9.01493 13.8893 9.63586 13.6191 10.28 13.4163C10.7802 12.517 11.2236 11.5872 11.6075 10.6325C11.378 10.111 11.198 9.569 11.07 9.01376C10.9625 8.51376 10.9213 8.01876 11.0125 7.59376C11.1063 7.15126 11.355 6.75376 11.825 6.56501C12.065 6.46876 12.325 6.41501 12.5775 6.46876C12.7045 6.4958 12.8239 6.55077 12.927 6.62968C13.0302 6.7086 13.1145 6.80948 13.1738 6.92501C13.2838 7.13001 13.3238 7.37001 13.3325 7.59751C13.3413 7.83126 13.3175 8.09126 13.2738 8.36501C13.1688 9.00251 12.9363 9.78251 12.6238 10.6075C12.9686 11.345 13.3786 12.0503 13.8488 12.715C14.4051 12.6711 14.9647 12.692 15.5163 12.7775C15.9713 12.8588 16.4338 13.0213 16.7163 13.3588C16.8663 13.5388 16.9575 13.7588 16.9663 14.0063C16.975 14.2463 16.9075 14.4838 16.7938 14.71C16.6952 14.9197 16.5424 15.0992 16.3513 15.23C16.1623 15.3533 15.9391 15.4137 15.7138 15.4025C15.3 15.385 14.8963 15.1575 14.5475 14.8813C14.1235 14.5306 13.7413 14.1321 13.4088 13.6938C12.5634 13.7896 11.7282 13.9595 10.9125 14.2013C10.5386 14.8637 10.1118 15.4949 9.63625 16.0888C9.27375 16.5263 8.87625 16.9075 8.47875 17.0725C8.25036 17.1758 7.99131 17.1888 7.75375 17.1088ZM9.4775 14.7325C9.27 14.8275 9.0775 14.9275 8.90375 15.03C8.49375 15.2725 8.2275 15.5088 8.095 15.7138C7.9775 15.895 7.975 16.0263 8.045 16.165C8.0575 16.1925 8.07 16.21 8.0775 16.22C8.09241 16.216 8.10703 16.211 8.12125 16.205C8.2925 16.135 8.565 15.9113 8.915 15.49C9.11406 15.2463 9.30176 14.9935 9.4775 14.7325ZM11.5275 13.07C11.9449 12.9725 12.3661 12.892 12.79 12.8288C12.5623 12.4805 12.3496 12.1227 12.1525 11.7563C11.9565 12.1995 11.7481 12.6372 11.5275 13.0688V13.07ZM14.585 13.6325C14.7725 13.835 14.955 14.0075 15.1288 14.145C15.4288 14.3825 15.6375 14.4613 15.7513 14.465C15.7817 14.469 15.8126 14.4624 15.8388 14.4463C15.8908 14.4052 15.9312 14.3514 15.9563 14.29C16.0007 14.2139 16.026 14.1281 16.03 14.04C16.0293 14.0106 16.0177 13.9826 15.9975 13.9613C15.9325 13.8838 15.7475 13.7713 15.35 13.7C15.0972 13.6577 14.8414 13.6356 14.585 13.6338V13.6325ZM12.0975 9.25001C12.2027 8.91066 12.2862 8.56496 12.3475 8.21501C12.3863 7.98001 12.4013 7.78626 12.395 7.63376C12.3953 7.54962 12.3818 7.466 12.355 7.38626C12.2925 7.394 12.2314 7.41084 12.1738 7.43626C12.065 7.48001 11.9763 7.56876 11.9288 7.79001C11.8788 8.03001 11.8913 8.37626 11.9863 8.81751C12.0163 8.95626 12.0538 9.10126 12.0988 9.25001H12.0975Z" fill="#091E42"/>
</svg>
