<svg width="24" height="24" viewBox="0 0 24 24" fill="none" xmlns="http://www.w3.org/2000/svg">
<path fill-rule="evenodd" clip-rule="evenodd" d="M1.5 6.75C1.5 5.09315 2.84315 3.75 4.5 3.75H19.5C21.1569 3.75 22.5 5.09315 22.5 6.75V17.25C22.5 18.9069 21.1569 20.25 19.5 20.25H4.5C2.84315 20.25 1.5 18.9069 1.5 17.25V6.75ZM3 9.75V17.25C3 18.0784 3.67157 18.75 4.5 18.75H19.5C20.3284 18.75 21 18.0784 21 17.25V9.75H3ZM21 7.5H3V6.75C3 5.92157 3.67157 5.25 4.5 5.25H19.5C20.3284 5.25 21 5.92157 21 6.75V7.5ZM4.5 14.25C4.5 13.8358 4.83579 13.5 5.25 13.5H11.25C11.6642 13.5 12 13.8358 12 14.25C12 14.6642 11.6642 15 11.25 15H5.25C4.83579 15 4.5 14.6642 4.5 14.25ZM4.5 16.5C4.5 16.0858 4.83579 15.75 5.25 15.75H8.25C8.66421 15.75 9 16.0858 9 16.5C9 16.9142 8.66421 17.25 8.25 17.25H5.25C4.83579 17.25 4.5 16.9142 4.5 16.5Z" fill="#091E42"/>
</svg>
