<svg width="24" height="24" viewBox="0 0 24 24" fill="none" xmlns="http://www.w3.org/2000/svg">
<path fill-rule="evenodd" clip-rule="evenodd" d="M12 2.25C8.27208 2.25 5.25 5.27208 5.25 9C5.25 11.4944 6.6026 13.6737 8.61794 14.843C9.61525 15.4217 10.5 16.4733 10.5 17.8083V18C10.5 18.4142 10.1642 18.75 9.75 18.75C9.33579 18.75 9 18.4142 9 18V17.8083C9 17.1776 8.56821 16.5484 7.86516 16.1405L8.24155 15.4917L7.86516 16.1405C5.40631 14.7138 3.75 12.0508 3.75 9C3.75 4.44365 7.44365 0.75 12 0.75C16.5563 0.75 20.25 4.44365 20.25 9C20.25 12.0508 18.5937 14.7138 16.1348 16.1405C15.4318 16.5484 15 17.1776 15 17.8083V18C15 18.4142 14.6642 18.75 14.25 18.75C13.8358 18.75 13.5 18.4142 13.5 18V17.8083C13.5 16.4733 14.3847 15.4217 15.3821 14.843C17.3974 13.6737 18.75 11.4944 18.75 9C18.75 5.27208 15.7279 2.25 12 2.25ZM9.77367 12.3741C9.87692 11.973 10.2858 11.7315 10.6869 11.8347C11.1058 11.9425 11.5456 12 12 12C12.4544 12 12.8942 11.9425 13.3131 11.8347C13.7142 11.7315 14.1231 11.973 14.2263 12.3741C14.3296 12.7752 14.0881 13.1841 13.6869 13.2874C13.3822 13.3658 13.0693 13.4234 12.75 13.4588V18C12.75 18.4142 12.4142 18.75 12 18.75C11.5858 18.75 11.25 18.4142 11.25 18V13.4588C10.9307 13.4234 10.6178 13.3658 10.3131 13.2874C9.91192 13.1841 9.67043 12.7752 9.77367 12.3741ZM9.01314 19.8997C9.09034 19.4927 9.48282 19.2254 9.88978 19.3026C10.5727 19.4321 11.2781 19.5 12 19.5C12.7219 19.5 13.4273 19.4321 14.1102 19.3026C14.5172 19.2254 14.9097 19.4927 14.9869 19.8997C15.0641 20.3066 14.7967 20.6991 14.3898 20.7763C13.6151 20.9232 12.8162 21 12 21C11.1838 21 10.3849 20.9232 9.61022 20.7763C9.20327 20.6991 8.93594 20.3066 9.01314 19.8997ZM9.75407 22.344C9.79717 21.932 10.1661 21.633 10.578 21.6761C11.0451 21.7249 11.5195 21.75 12 21.75C12.4805 21.75 12.9549 21.7249 13.422 21.6761C13.8339 21.633 14.2028 21.932 14.2459 22.344C14.289 22.7559 13.99 23.1248 13.578 23.1679C13.0592 23.2222 12.5327 23.25 12 23.25C11.4673 23.25 10.9408 23.2222 10.422 23.1679C10.01 23.1248 9.71097 22.7559 9.75407 22.344Z" fill="#091E42"/>
</svg>
